<?xml version="1.0" encoding="utf-8"?>
<!-- Generator: Adobe Illustrator 15.0.0, SVG Export Plug-In . SVG Version: 6.00 Build 0)  -->
<!DOCTYPE svg PUBLIC "-//W3C//DTD SVG 1.1//EN" "http://www.w3.org/Graphics/SVG/1.1/DTD/svg11.dtd">
<svg version="1.1" id="Capa_1" xmlns="http://www.w3.org/2000/svg" xmlns:xlink="http://www.w3.org/1999/xlink" x="0px" y="0px"
	 width="33.664px" height="53.457px" viewBox="25.247 40.094 33.664 53.457" enable-background="new 25.247 40.094 33.664 53.457"
	 xml:space="preserve">
<g id="Layer_2">
</g>
<g>
	<circle fill="#FAFBFC" cx="42.079" cy="56.454" r="15.956"/>
	<g>
		<path fill="#0067B4" d="M58.911,56.925c0,9.292-16.832,36.626-16.832,36.626S25.247,66.216,25.247,56.925
			c0-9.291,7.541-16.831,16.832-16.831S58.911,47.634,58.911,56.925z M55.141,56.925c0-7.271-5.791-13.061-13.062-13.061
			c-7.271,0-13.062,5.79-13.062,13.061c0,7.137,5.79,13.062,13.062,13.062S55.141,64.197,55.141,56.925z"/>
		<g>
			<g>
				<path fill="#0067B4" stroke="#0067B4" stroke-width="0.4604" stroke-linejoin="round" stroke-miterlimit="3.8637" d="
					M38.981,54.097l-0.538,14.139c0,0.809,1.885,0.942,1.75,0l-0.539-14.139c0-1.077,1.077-1.212,1.212-2.424
					c0.27-1.346-0.27-6.328-0.404-6.328s0.135,5.656-0.539,5.924c-0.538-0.269-0.538-6.059-0.673-6.059
					c-0.135,0-0.135,5.79-0.808,6.059c-0.539-0.269-0.27-5.924-0.539-5.924c-0.134,0-0.673,5.117-0.403,6.328
					C37.77,52.751,38.981,53.019,38.981,54.097z"/>
			</g>
			<g>
				<path fill="#0067B4" stroke="#0067B4" stroke-width="0.4604" stroke-linejoin="round" stroke-miterlimit="3.8637" d="
					M44.771,68.236c0,0.808,2.021,0.808,1.886,0c-0.404-8.349-0.404-11.984,0-21.814c0-1.481-0.942-1.481-1.347,0
					c-0.808,2.559-1.75,6.598,0.135,11.177C45.58,60.83,45.311,63.254,44.771,68.236z"/>
			</g>
		</g>
	</g>
</g>
</svg>
