<?xml version="1.0" encoding="utf-8"?>
<!-- Generator: Adobe Illustrator 17.1.0, SVG Export Plug-In . SVG Version: 6.00 Build 0)  -->
<!DOCTYPE svg PUBLIC "-//W3C//DTD SVG 1.1//EN" "http://www.w3.org/Graphics/SVG/1.1/DTD/svg11.dtd">
<svg version="1.1" id="Capa_1" xmlns="http://www.w3.org/2000/svg" xmlns:xlink="http://www.w3.org/1999/xlink" x="0px" y="0px"
	 viewBox="403.3 554.7 51.5 80.8" enable-background="new 403.3 554.7 51.5 80.8" xml:space="preserve">
<g id="Layer_2">
</g>
<g>
	<circle fill="#FAFBFC" cx="429.2" cy="579.9" r="23.7"/>
	<g>
		<path fill="#0067B4" d="M454.2,580.6c0,13.8-25,54.4-25,54.4s-25-40.6-25-54.4s11.2-25,25-25S454.2,566.8,454.2,580.6z
			 M448.6,580.6c0-10.8-8.6-19.4-19.4-19.4s-19.4,8.6-19.4,19.4c0,10.6,8.6,19.4,19.4,19.4S448.6,591.4,448.6,580.6z"/>
		<g>
			<g>
				<path fill="#0067B4" stroke="#0067B4" stroke-width="0.4604" stroke-linejoin="round" stroke-miterlimit="3.8637" d="
					M424.6,576.4l-0.8,21c0,1.2,2.8,1.4,2.6,0l-0.8-21c0-1.6,1.6-1.8,1.8-3.6c0.4-2-0.4-9.4-0.6-9.4s0.2,8.4-0.8,8.8
					c-0.8-0.4-0.8-9-1-9s-0.2,8.6-1.2,9c-0.8-0.4-0.4-8.8-0.8-8.8c-0.2,0-1,7.6-0.6,9.4C422.8,574.4,424.6,574.8,424.6,576.4z"/>
			</g>
			<g>
				<path fill="#0067B4" stroke="#0067B4" stroke-width="0.4604" stroke-linejoin="round" stroke-miterlimit="3.8637" d="
					M433.2,597.4c0,1.2,3,1.2,2.8,0c-0.6-12.4-0.6-17.8,0-32.4c0-2.2-1.4-2.2-2,0c-1.2,3.8-2.6,9.8,0.2,16.6
					C434.4,586.4,434,590,433.2,597.4z"/>
			</g>
		</g>
	</g>
</g>
</svg>
