<?xml version="1.0" encoding="utf-8"?>
<!-- Generator: Adobe Illustrator 17.1.0, SVG Export Plug-In . SVG Version: 6.00 Build 0)  -->
<!DOCTYPE svg PUBLIC "-//W3C//DTD SVG 1.1//EN" "http://www.w3.org/Graphics/SVG/1.1/DTD/svg11.dtd">
<svg version="1.1" id="Capa_1" xmlns="http://www.w3.org/2000/svg" xmlns:xlink="http://www.w3.org/1999/xlink" x="0px" y="0px"
	 viewBox="8.3 0 233 250" enable-background="new 8.3 0 233 250" xml:space="preserve">
<g>
	<path fill="#0067B4" d="M179.5,0c20.3-0.1,38.5,3.8,47.8,12.8c9.3,9.1,13.9,21.2,13.9,36.3l0,77.5l-42.4,0l0-76.5
		c0-6.6-2-11.7-6-15.3s-10.2-5.4-18.7-5.4s-15,1.9-19.6,5.7c-4.6,3.8-7,9.3-7,16.5l0,75.1l-41.5,0l0-76.1
		c-0.2-5.3-2.9-10.1-7.9-14.6c-5.1-4.4-11.7-6.7-19.9-6.7c-8.2,0-14.9,2.1-19.9,6.2s-7.6,9-7.6,14.6l0,76.5l-42.1,0L8.3,0
		C8.3,0,137.3,0.2,179.5,0z"/>
	<path fill="#0067B4" d="M70.2,250c-20.3,0-38.5-3.8-47.8-12.9c-9.3-9.1-13.6-21.2-13.6-36.3l0-77.5l42.1,0l0,76.5
		c1,7.9,4.9,11.7,8.9,15.3s9.3,5.4,17.8,5.4s16.4-2.2,21-6c4.6-3.8,7.8-9,7.8-16.3l0-75.1l41.3,0l0,76.1c0.2,5.3,1.9,11,7,15.5
		c5.1,4.4,11.2,5.8,19.5,5.7c8.2,0,13.8-2.1,18.8-6.2c5.1-4.1,6.1-9,6.1-14.6l0-76.5l42.4,0l0.1,126.7C241.4,250,87.7,250,70.2,250z
		"/>
	<g>
		<g>
			<polygon fill="#0067B4" points="38.9,27.6 216.8,27.6 216.8,227.1 38.9,227.1 			"/>
			<path fill="#0067B4" d="M127.8,127.3"/>
		</g>
		<g>
			<polygon fill="none" stroke="#0067B4" stroke-width="1.2678" stroke-miterlimit="3.8637" points="38.9,27.6 216.8,27.6 
				216.8,227.1 38.9,227.1 			"/>
			<path fill="none" stroke="#0067B4" stroke-width="1.2678" stroke-miterlimit="3.8637" d="M127.8,127.3"/>
		</g>
	</g>
	<g>
		<g>
			<path fill="#0067B4" d="M164.7,30.2c14.8-0.1,28.1,2.7,34.9,9.2c6.8,6.5,10.2,15.2,10.2,26.1l0,55.8l-30.9,0l0-55
				c0-4.7-1.5-8.4-4.4-11c-2.9-2.6-7.5-3.9-13.6-3.9c-6.2,0-10.9,1.4-14.3,4.1c-3.4,2.7-5.1,6.7-5.1,11.9l0,54h-30.2l0-54.7
				c-0.2-3.8-2.1-7.3-5.8-10.5c-3.7-3.2-8.5-4.8-14.5-4.8c-6,0-10.8,1.5-14.5,4.4c-3.7,3-5.5,6.5-5.5,10.5l0,55l-30.7,0l-0.2-91.1
				C39.9,30.2,134,30.3,164.7,30.2z"/>
		</g>
		<g>
			<path fill="#0067B4" d="M85,219.8c-14.8,0-28.1-2.7-34.9-9.2c-6.8-6.5-9.9-15.2-9.9-26.1l0-55.8l30.7,0l0,55
				c0.7,5.7,3.6,8.4,6.5,11c2.9,2.6,6.8,3.9,13,3.9c6.2,0,11.9-1.6,15.3-4.3c3.4-2.7,5.7-6.5,5.7-11.7l0-54l30.1,0l0,54.7
				c0.2,3.8,1.4,7.9,5.1,11.1c3.7,3.2,8.2,4.1,14.2,4.1s10-1.5,13.7-4.4c3.7-3,4.4-6.5,4.4-10.5l0-55l30.7,0l0.2,91.1
				C209.8,219.8,97.7,219.8,85,219.8z"/>
		</g>
		<path fill="none" stroke="#FFFFFF" stroke-width="2" stroke-miterlimit="3.8637" d="M164.7,30.2c14.8-0.1,28.1,2.7,34.9,9.2
			c6.8,6.5,10.2,15.2,10.2,26.1l0,55.8l-30.9,0l0-55c0-4.7-1.5-8.4-4.4-11c-2.9-2.6-7.5-3.9-13.6-3.9c-6.2,0-10.9,1.4-14.3,4.1
			c-3.4,2.7-5.1,6.7-5.1,11.9l0,54h-30.2l0-54.7c-0.2-3.8-2.1-7.3-5.8-10.5c-3.7-3.2-8.5-4.8-14.5-4.8c-6,0-10.8,1.5-14.5,4.4
			c-3.7,3-5.5,6.5-5.5,10.5l0,55l-30.7,0l-0.2-91.1C39.9,30.2,134,30.3,164.7,30.2z M85,219.8c-14.8,0-28.1-2.7-34.9-9.2
			c-6.8-6.5-9.9-15.2-9.9-26.1l0-55.8l30.7,0l0,55c0.7,5.7,3.6,8.4,6.5,11c2.9,2.6,6.8,3.9,13,3.9c6.2,0,11.9-1.6,15.3-4.3
			c3.4-2.7,5.7-6.5,5.7-11.7l0-54l30.1,0l0,54.7c0.2,3.8,1.4,7.9,5.1,11.1c3.7,3.2,8.2,4.1,14.2,4.1s10-1.5,13.7-4.4
			c3.7-3,4.4-6.5,4.4-10.5l0-55l30.7,0l0.2,91.1L85,219.8z"/>
	</g>
	<g>
		<path fill="#FFFFFF" d="M89.5,109l-2.8,76.6c-0.2,4.5,10.4,4.7,10,0l-3-76.6c-0.2-5.6,5.8-6.4,6.5-12.8c1.2-6.8-1.3-34.8-2.2-34.8
			c-1,0,0.5,30.6-2.6,32C92.4,92.1,92.7,61,91.7,61c-0.9,0-0.5,31.3-4,32.4c-2.9-1.3-1.7-32-2.6-32c-0.8,0-3.3,27.6-2.3,34.8
			C83.4,102.4,89.7,103.3,89.5,109z"/>
		<path fill="none" stroke="#FFFFFF" stroke-linejoin="round" stroke-miterlimit="3.8637" d="M89.5,109l-2.8,76.6
			c-0.2,4.5,10.4,4.7,10,0l-3-76.6c-0.2-5.6,5.8-6.4,6.5-12.8c1.2-6.8-1.3-34.8-2.2-34.8c-1,0,0.5,30.6-2.6,32
			C92.4,92.1,92.7,61,91.7,61c-0.9,0-0.5,31.3-4,32.4c-2.9-1.3-1.7-32-2.6-32c-0.8,0-3.3,27.6-2.3,34.8
			C83.4,102.4,89.7,103.3,89.5,109z"/>
	</g>
	<g>
		<path fill="#FFFFFF" stroke="#FFFFFF" stroke-miterlimit="3.8637" d="M155.3,185.7c-0.3,4,11,4.2,10.5,0
			c-2.4-44.8-1.8-64.7,0-118.4c-0.3-8.2-5.1-8-7.4-0.3c-4,13.5-9.9,36.3,0.8,60C159.2,145.7,157.8,159.2,155.3,185.7z"/>
		<path fill="none" stroke="#FFFFFF" stroke-width="0.4604" stroke-linejoin="round" stroke-miterlimit="3.8637" d="M155.3,185.7
			c-0.3,4,11,4.2,10.5,0c-2.4-44.8-1.8-64.7,0-118.4c-0.3-8.2-5.1-8-7.4-0.3c-4,13.5-9.9,36.3,0.8,60
			C159.2,145.7,157.8,159.2,155.3,185.7z"/>
	</g>
</g>
</svg>
