<?xml version="1.0" encoding="utf-8"?>
<!-- Generator: Adobe Illustrator 17.1.0, SVG Export Plug-In . SVG Version: 6.00 Build 0)  -->
<!DOCTYPE svg PUBLIC "-//W3C//DTD SVG 1.1//EN" "http://www.w3.org/Graphics/SVG/1.1/DTD/svg11.dtd">
<svg version="1.1" id="Capa_1" xmlns="http://www.w3.org/2000/svg" xmlns:xlink="http://www.w3.org/1999/xlink" x="0px" y="0px"
	 viewBox="0 0 250 250" enable-background="new 0 0 250 250" xml:space="preserve">
<g id="Layer_2">
</g>
<path fill="#0067B4" d="M203.7,78.8c0,43.5-78.8,171.2-78.8,171.2S46.3,121.9,46.3,78.8C46.3,35.4,81.7,0,125.2,0
	C168.3,0,203.7,35.4,203.7,78.8z M186,78.8c0-33.8-26.9-61.2-60.8-61.2S64,44.6,64,78.8c0,33.5,27.3,61.2,61.2,61.2
	S186,112.3,186,78.8z"/>
<g>
	<g>
		<path fill="#0067B4" stroke="#0067B4" stroke-width="0.4604" stroke-linejoin="round" stroke-miterlimit="3.8637" d="M110.1,65.3
			l-2.4,66.3c0,3.6,9,4.2,8.4,0l-2.4-66.3c0-4.8,4.8-5.4,5.4-11.4c1.2-6-1.2-29.9-1.8-29.9c-0.6,0,0.6,26.3-2.4,27.5
			c-2.4-1.2-2.4-28.1-3-28.1s-0.6,26.9-3.6,28.1c-2.4-1.2-1.2-27.5-2.4-27.5c-0.6,0-3,23.9-1.8,29.9
			C104.8,59.3,110.1,60.5,110.1,65.3z"/>
	</g>
	<g>
		<path fill="#0067B4" stroke="#0067B4" stroke-width="0.4604" stroke-linejoin="round" stroke-miterlimit="3.8637" d="M137.2,131.7
			c0,3.6,9.6,3.6,9,0c-1.8-38.8-1.8-56.1,0-102.2c0-7.2-4.2-7.2-6.6,0c-3.6,12-8.4,31.1,0.6,52C140.8,97,139.6,108.4,137.2,131.7z"
			/>
	</g>
</g>
</svg>
