<?xml version="1.0" encoding="utf-8"?>
<!-- Generator: Adobe Illustrator 17.1.0, SVG Export Plug-In . SVG Version: 6.00 Build 0)  -->
<!DOCTYPE svg PUBLIC "-//W3C//DTD SVG 1.1//EN" "http://www.w3.org/Graphics/SVG/1.1/DTD/svg11.dtd">
<svg version="1.1" id="Capa_1" xmlns="http://www.w3.org/2000/svg" xmlns:xlink="http://www.w3.org/1999/xlink" x="0px" y="0px"
	 viewBox="408.4 575.4 25 39.7" enable-background="new 408.4 575.4 25 39.7" xml:space="preserve">
<g id="Layer_2">
</g>
<g>
	<path fill="#0067B4" d="M433.4,587.9c0,6.9-12.5,27.2-12.5,27.2s-12.5-20.3-12.5-27.2c0-6.9,5.6-12.5,12.5-12.5
		C427.8,575.4,433.4,581,433.4,587.9z M430.6,587.9c0-5.4-4.3-9.7-9.7-9.7s-9.7,4.3-9.7,9.7c0,5.3,4.3,9.7,9.7,9.7
		S430.6,593.3,430.6,587.9z"/>
	<g>
		<g>
			<path fill="#0067B4" stroke="#0067B4" stroke-width="0.4604" stroke-linejoin="round" stroke-miterlimit="3.8637" d="
				M418.6,585.8l-0.4,10.5c0,0.6,1.4,0.7,1.3,0l-0.4-10.5c0-0.8,0.8-0.9,0.9-1.8c0.2-1-0.2-4.7-0.3-4.7s0.1,4.2-0.4,4.4
				c-0.4-0.2-0.4-4.5-0.5-4.5s-0.1,4.3-0.6,4.5c-0.4-0.2-0.2-4.4-0.4-4.4c-0.1,0-0.5,3.8-0.3,4.7C417.7,584.8,418.6,585,418.6,585.8
				z"/>
		</g>
		<g>
			<path fill="#0067B4" stroke="#0067B4" stroke-width="0.4604" stroke-linejoin="round" stroke-miterlimit="3.8637" d="
				M422.9,596.3c0,0.6,1.5,0.6,1.4,0c-0.3-6.2-0.3-8.9,0-16.2c0-1.1-0.7-1.1-1,0c-0.6,1.9-1.3,4.9,0.1,8.3
				C423.5,590.8,423.3,592.6,422.9,596.3z"/>
		</g>
	</g>
</g>
</svg>
