<?xml version="1.0" encoding="utf-8"?>
<!-- Generator: Adobe Illustrator 17.1.0, SVG Export Plug-In . SVG Version: 6.00 Build 0)  -->
<!DOCTYPE svg PUBLIC "-//W3C//DTD SVG 1.1//EN" "http://www.w3.org/Graphics/SVG/1.1/DTD/svg11.dtd">
<svg version="1.1" id="Capa_1" xmlns="http://www.w3.org/2000/svg" xmlns:xlink="http://www.w3.org/1999/xlink" x="0px" y="0px"
	 viewBox="193.8 136.3 369 112.9" enable-background="new 193.8 136.3 369 112.9" xml:space="preserve">
<g>
	<path fill="#0067B4" d="M271.1,136.3c9.2,0,17.4,1.7,21.6,5.8c4.2,4.1,6.3,9.6,6.3,16.4l0,35l-19.2,0l0-34.6c0-3-0.9-5.3-2.7-6.9
		c-1.8-1.6-4.6-2.5-8.4-2.5s-6.8,0.9-8.9,2.6s-3.1,4.2-3.1,7.5l0,33.9l-18.7,0l0-34.4c-0.1-2.4-1.3-4.6-3.6-6.6c-2.3-2-5.3-3-9-3
		c-3.7,0-6.7,0.9-9,2.8c-2.3,1.9-3.4,4.1-3.4,6.6l0,34.6l-19,0l-0.2-57.2C193.8,136.3,252,136.4,271.1,136.3z"/>
	<path fill="#0067B4" d="M221.7,249.3c-9.2,0-17.4-1.7-21.6-5.8c-4.2-4.1-6.2-9.6-6.2-16.4l0-35l19,0l0,34.6c0.4,3.6,2.2,5.3,4,6.9
		s4.2,2.5,8,2.5c3.8,0,7.4-1,9.5-2.7s3.5-4.1,3.5-7.3l0-33.9l18.6,0l0,34.4c0.1,2.4,0.9,5,3.2,7c2.3,2,5.1,2.6,8.8,2.6
		s6.2-0.9,8.5-2.8s2.7-4.1,2.7-6.6l0-34.6l19.1,0l0,57.2C299,249.3,229.6,249.3,221.7,249.3z"/>
	<g>
		<g>
			<polygon fill="#0067B4" points="207.6,148.8 287.9,148.8 287.9,238.9 207.6,238.9 			"/>
			<path fill="#0067B4" d="M247.7,193.9"/>
		</g>
		<g>
			<polygon fill="none" stroke="#0067B4" stroke-width="1.2678" stroke-miterlimit="3.8637" points="207.6,148.8 287.9,148.8 
				287.9,238.9 207.6,238.9 			"/>
			<path fill="none" stroke="#0067B4" stroke-width="1.2678" stroke-miterlimit="3.8637" d="M247.7,193.9"/>
		</g>
	</g>
	<g>
		<g>
			<path fill="#0067B4" d="M264.4,150c6.7,0,12.7,1.2,15.7,4.2c3.1,2.9,4.6,6.9,4.6,11.8l0,25.2l-14,0l0-24.9c0-2.1-0.7-3.8-2-5
				c-1.3-1.2-3.4-1.8-6.1-1.8c-2.8,0-4.9,0.6-6.5,1.8c-1.5,1.2-2.3,3-2.3,5.4l0,24.4h-13.7l0-24.7c-0.1-1.7-0.9-3.3-2.6-4.7
				c-1.7-1.4-3.9-2.2-6.6-2.2c-2.7,0-4.9,0.7-6.6,2c-1.7,1.3-2.5,2.9-2.5,4.7l0,24.9l-13.9,0L208,150C208,150,250.5,150,264.4,150z"
				/>
		</g>
		<g>
			<path fill="#0067B4" d="M228.4,235.6c-6.7,0-12.7-1.2-15.7-4.2c-3.1-2.9-4.5-6.9-4.5-11.8l0-25.2l13.9,0l0,24.9
				c0.3,2.6,1.6,3.8,2.9,5c1.3,1.2,3.1,1.8,5.9,1.8c2.8,0,5.4-0.7,6.9-1.9s2.6-2.9,2.6-5.3l0-24.4l13.6,0l0,24.7
				c0.1,1.7,0.6,3.6,2.3,5c1.7,1.4,3.7,1.9,6.4,1.9c2.7,0,4.5-0.7,6.2-2c1.7-1.3,2-2.9,2-4.7l0-24.9l13.9,0l0.1,41.2
				C284.7,235.6,234.1,235.6,228.4,235.6z"/>
		</g>
		<path fill="none" stroke="#FFFFFF" stroke-width="0.9921" stroke-miterlimit="3.8637" d="M264.4,150c6.7,0,12.7,1.2,15.7,4.2
			c3.1,2.9,4.6,6.9,4.6,11.8l0,25.2l-14,0l0-24.9c0-2.1-0.7-3.8-2-5c-1.3-1.2-3.4-1.8-6.1-1.8c-2.8,0-4.9,0.6-6.5,1.8
			c-1.5,1.2-2.3,3-2.3,5.4l0,24.4h-13.7l0-24.7c-0.1-1.7-0.9-3.3-2.6-4.7c-1.7-1.4-3.9-2.2-6.6-2.2c-2.7,0-4.9,0.7-6.6,2
			c-1.7,1.3-2.5,2.9-2.5,4.7l0,24.9l-13.9,0L208,150C208,150,250.5,150,264.4,150z M228.4,235.6c-6.7,0-12.7-1.2-15.7-4.2
			c-3.1-2.9-4.5-6.9-4.5-11.8l0-25.2l13.9,0l0,24.9c0.3,2.6,1.6,3.8,2.9,5c1.3,1.2,3.1,1.8,5.9,1.8c2.8,0,5.4-0.7,6.9-1.9
			s2.6-2.9,2.6-5.3l0-24.4l13.6,0l0,24.7c0.1,1.7,0.6,3.6,2.3,5c1.7,1.4,3.7,1.9,6.4,1.9c2.7,0,4.5-0.7,6.2-2c1.7-1.3,2-2.9,2-4.7
			l0-24.9l13.9,0l0.1,41.2L228.4,235.6z"/>
	</g>
	<g>
		<path fill="#FFFFFF" d="M230.4,185.6l-1.3,34.6c-0.1,2,4.7,2.1,4.5,0l-1.4-34.6c-0.1-2.5,2.6-2.9,2.9-5.8c0.5-3.1-0.6-15.7-1-15.7
			c-0.4,0,0.2,13.8-1.2,14.4c-1.3-0.6-1.2-14.6-1.6-14.6c-0.4,0-0.2,14.1-1.8,14.6c-1.3-0.6-0.8-14.4-1.2-14.4
			c-0.4,0-1.5,12.5-1,15.7C227.6,182.6,230.5,183,230.4,185.6z"/>
		<path fill="none" stroke="#FFFFFF" stroke-width="0.4604" stroke-linejoin="round" stroke-miterlimit="3.8637" d="M230.4,185.6
			l-1.3,34.6c-0.1,2,4.7,2.1,4.5,0l-1.4-34.6c-0.1-2.5,2.6-2.9,2.9-5.8c0.5-3.1-0.6-15.7-1-15.7c-0.4,0,0.2,13.8-1.2,14.4
			c-1.3-0.6-1.2-14.6-1.6-14.6c-0.4,0-0.2,14.1-1.8,14.6c-1.3-0.6-0.8-14.4-1.2-14.4c-0.4,0-1.5,12.5-1,15.7
			C227.6,182.6,230.5,183,230.4,185.6z"/>
	</g>
	<g>
		<path fill="#FFFFFF" d="M260.1,220.2c-0.1,1.8,5,1.9,4.8,0c-1.1-20.2-0.8-29.2,0-53.5c-0.1-3.7-2.3-3.6-3.3-0.1
			c-1.8,6.1-4.5,16.4,0.3,27.1C261.9,202.1,261.2,208.2,260.1,220.2z"/>
		<path fill="none" stroke="#FFFFFF" stroke-width="0.4604" stroke-linejoin="round" stroke-miterlimit="3.8637" d="M260.1,220.2
			c-0.1,1.8,5,1.9,4.8,0c-1.1-20.2-0.8-29.2,0-53.5c-0.1-3.7-2.3-3.6-3.3-0.1c-1.8,6.1-4.5,16.4,0.3,27.1
			C261.9,202.1,261.2,208.2,260.1,220.2z"/>
	</g>
</g>
<g>
	<g>
		<g>
			<path fill="#0067B4" d="M344.6,173.7c3.7,0,7,0.8,8.7,2.7c1.7,1.9,2.5,4.5,2.5,7.7v16.4h-7.8v-16.1c0-1.4-0.4-2.5-1.1-3.2
				c-0.7-0.8-1.9-1.1-3.4-1.1c-1.5,0-2.7,0.4-3.6,1.2c-0.8,0.8-1.3,2-1.3,3.5v15.8h-7.6v-16c0-1.1-0.5-2.1-1.4-3.1
				c-0.9-0.9-2.1-1.4-3.6-1.4s-2.7,0.4-3.6,1.3c-0.9,0.9-1.4,1.9-1.4,3.1v16.1h-7.7l-0.1-26.7C313.3,173.7,341.4,173.7,344.6,173.7z
				"/>
			<path fill="#0067B4" stroke="#0067B4" stroke-miterlimit="10" d="M399,174c4.1,0,7.5,0.4,10,2.2c2.6,2.3,2.9,4.6,2.9,8.4v15.8
				h-7.6v-16c0-1.1-0.5-2.1-1.4-3.1c-0.9-0.9-2.1-1.4-3.6-1.4c-1.5,0-2.7,0.4-3.6,1.3c-0.9,0.9-1.4,1.9-1.4,3.1v16.1h-7.7l-0.1-26.5
				H399z"/>
			<path fill="#0067B4" d="M414.3,174h7.6v14.7c0,1.7,0.3,3.1,1,4.1c0.7,1,1.9,1.5,3.6,1.5c1.7,0,3-0.6,3.9-1.6
				c0.8-1,1.3-2.5,1.3-4.5V174h7.6v26.5h-7.6c-8.7,0-11.3,0.2-14.2-1.9c-2.9-2.1-3.3-4.8-3.3-9.5L414.3,174L414.3,174z"/>
			<path fill="#0067B4" d="M536.3,200.4v-36.8l7.6,0v11.8c2.1-1.5,4.5-2.3,7.2-2.2c2.7,0.1,5.2,1.3,7.4,3.5
				c2.2,2.3,3.2,5.9,3.1,10.8c-0.1,4.9-1.4,8.3-3.8,10.3c-3.3,2.8-6,2.6-14,2.6C544,200.4,536.3,200.4,536.3,200.4z M543.9,194.2
				c6.9,0,7.2-0.2,8.6-1.7c1-1.1,1.5-2.9,1.5-5.3c0-2.4-0.4-4.2-1.3-5.4c-0.8-1.2-2.1-1.8-3.8-1.9c-1.7-0.1-3.4,0.6-5,2.2
				L543.9,194.2z"/>
			<path fill="#0067B4" d="M474.4,200.8c-3.9,0-6.2-0.9-8-2.7c-1.8-1.8-2.5-4.5-2.5-7.7v-16.4h7.8v16.1c0,1.4,0.4,2.5,1.1,3.2
				c0.7,0.8,1.9,1.1,3.4,1.1c1.5,0,2.7-0.4,3.6-1.2c0.8-0.8,1.3-2,1.3-3.5v-15.8h7.6v16c0,1.1,0.5,2.1,1.4,3.1
				c0.9,0.9,2.1,1.4,3.6,1.4s2.7-0.4,3.6-1.3c0.9-0.9,1.4-1.9,1.4-3.1v-16.1h7.7l0.1,26.8C506.4,200.8,477.8,200.8,474.4,200.8z"/>
			<path fill="#0067B4" stroke="#0067B4" stroke-width="0.822" stroke-linejoin="round" stroke-miterlimit="3.8637" d="M344.6,173.7
				c3.7,0,7,0.8,8.7,2.7c1.7,1.9,2.5,4.5,2.5,7.7v16.4h-7.8v-16.1c0-1.4-0.4-2.5-1.1-3.2c-0.7-0.8-1.9-1.1-3.4-1.1
				c-1.5,0-2.7,0.4-3.6,1.2c-0.8,0.8-1.3,2-1.3,3.5v15.8h-7.6v-16c0-1.1-0.5-2.1-1.4-3.1c-0.9-0.9-2.1-1.4-3.6-1.4s-2.7,0.4-3.6,1.3
				c-0.9,0.9-1.4,1.9-1.4,3.1v16.1h-7.7l-0.1-26.7L344.6,173.7z M399,174c4.1,0,7.5,0.4,10,2.2c2.6,2.3,2.9,4.6,2.9,8.4v15.8h-7.6
				v-16c0-1.1-0.5-2.1-1.4-3.1c-0.9-0.9-2.1-1.4-3.6-1.4c-1.5,0-2.7,0.4-3.6,1.3c-0.9,0.9-1.4,1.9-1.4,3.1v16.1h-7.7l-0.1-26.5H399z
				 M414.3,174h7.6v14.7c0,1.7,0.3,3.1,1,4.1c0.7,1,1.9,1.5,3.6,1.5c1.7,0,3-0.6,3.9-1.6c0.8-1,1.3-2.5,1.3-4.5V174h7.6v26.5h-7.6
				c-8.7,0-11.3,0.2-14.2-1.9c-2.9-2.1-3.3-4.8-3.3-9.5L414.3,174L414.3,174z M536.3,200.4v-36.8l7.6,0v11.8
				c2.1-1.5,4.5-2.3,7.2-2.2c2.7,0.1,5.2,1.3,7.4,3.5c2.2,2.3,3.2,5.9,3.1,10.8c-0.1,4.9-1.4,8.3-3.8,10.3c-3.3,2.8-6,2.6-14,2.6
				L536.3,200.4L536.3,200.4z M543.9,194.2c6.9,0,7.2-0.2,8.6-1.7c1-1.1,1.5-2.9,1.5-5.3c0-2.4-0.4-4.2-1.3-5.4
				c-0.8-1.2-2.1-1.8-3.8-1.9c-1.7-0.1-3.4,0.6-5,2.2L543.9,194.2z M474.4,200.8c-3.9,0-6.2-0.9-8-2.7c-1.8-1.8-2.5-4.5-2.5-7.7
				v-16.4h7.8v16.1c0,1.4,0.4,2.5,1.1,3.2c0.7,0.8,1.9,1.1,3.4,1.1c1.5,0,2.7-0.4,3.6-1.2c0.8-0.8,1.3-2,1.3-3.5v-15.8h7.6v16
				c0,1.1,0.5,2.1,1.4,3.1c0.9,0.9,2.1,1.4,3.6,1.4s2.7-0.4,3.6-1.3c0.9-0.9,1.4-1.9,1.4-3.1v-16.1h7.7l0.1,26.8L474.4,200.8z"/>
		</g>
		
			<rect x="447.6" y="186.1" fill="#0067B4" stroke="#0067B4" stroke-width="2.824" stroke-linejoin="round" stroke-miterlimit="3.8637" width="8.2" height="5.2"/>
	</g>
	<path fill="#0067B4" d="M533.1,196.6c-3.4,2.9-7.2,4.3-11.3,4.2c-4.1-0.1-7.4-1.4-9.7-3.9c-2.4-2.5-3.5-5.8-3.5-10.1
		c0-4.2,1.3-7.6,3.8-10c2.5-2.4,5.5-3.6,9.1-3.6c3.5,0,6.6,1.3,9.2,3.9c2.6,2.6,3.7,6.6,3.3,12.1h-17.7c0.1,0.9,0.5,1.9,1.3,3
		c0.8,1.1,2.3,1.7,4.5,1.9c2.2,0.1,3.3-0.6,5.4-2C529.8,190.8,535.1,194.7,533.1,196.6z"/>
	<path fill="#F9F9F9" d="M516.8,184.6h10c-0.2-1.3-0.7-2.3-1.4-3.2c-0.7-0.9-1.9-1.3-3.5-1.4c-1.6,0-2.8,0.4-3.5,1.3
		C517.5,182.3,517,183.4,516.8,184.6z"/>
	<path fill="#0067B4" d="M383,196.6c-3.4,2.9-7.2,4.3-11.3,4.2c-4.1-0.1-7.4-1.4-9.7-3.9s-3.5-5.8-3.5-10.1c0-4.2,1.3-7.6,3.8-10
		c2.5-2.4,5.5-3.6,9.1-3.6c3.5,0,6.6,1.3,9.2,3.9c2.6,2.6,3.7,6.6,3.3,12.1h-17.7c0.1,0.9,0.5,1.9,1.3,3c0.8,1.1,2.3,1.7,4.5,1.9
		c2.2,0.1,3.3-0.6,5.4-2C379.8,190.8,385,194.7,383,196.6z"/>
	<path fill="#FCFCFC" d="M366.5,184.6h10c-0.2-1.3-0.7-2.3-1.4-3.2c-0.7-0.9-1.9-1.3-3.5-1.4c-1.6,0-2.8,0.4-3.5,1.3
		C367.3,182.3,366.8,183.4,366.5,184.6z"/>
	<path fill="#0067B4" d="M321.6,221.8l-2.1-3.3c-0.2-0.2-0.3-0.5-0.5-0.7c-0.2-0.2-0.3-0.5-0.5-0.7c-0.3-0.5-0.7-0.8-1-1
		c0.6-0.2,1.1-0.5,1.5-1c0.4-0.4,0.7-1,0.7-1.8c0-1-0.3-1.7-1-2.2c-0.7-0.5-1.6-0.8-2.8-0.8H313v11.4h0.9v-5.5h1.7
		c0.8,0,1.4,0.2,1.8,0.7c0.2,0.2,0.4,0.5,0.6,0.8c0.2,0.3,0.4,0.6,0.6,0.9l2,3.1L321.6,221.8L321.6,221.8z M318.7,213.3
		c0,0.7-0.3,1.3-0.8,1.7c-0.5,0.4-1.2,0.6-2.2,0.6h-1.9v-4.5h2c0.9,0,1.6,0.2,2.1,0.6C318.5,212.1,318.7,212.6,318.7,213.3z"/>
	<polygon fill="#0067B4" points="329.3,221.8 329.3,221 323.8,221 323.8,216.4 329,216.4 329,215.7 323.8,215.7 323.8,211.1 
		329.2,211.1 329.2,210.4 323,210.4 323,221.8 	"/>
	<path fill="#0067B4" d="M336.3,218.9c0-0.9-0.2-1.5-0.6-2c-0.4-0.5-1.2-0.9-2.4-1.3c-0.9-0.3-1.5-0.6-1.9-1
		c-0.4-0.3-0.6-0.8-0.6-1.4c0-0.6,0.2-1.1,0.7-1.5c0.4-0.4,1-0.6,1.7-0.6c0.6,0,1.1,0.1,1.5,0.3c0.2,0.1,0.4,0.2,0.6,0.3
		c0.2,0.1,0.3,0.2,0.5,0.3l0-1c-0.1,0-0.2-0.1-0.3-0.2c-0.2-0.1-0.4-0.2-0.6-0.3c-0.5-0.2-1.1-0.3-1.7-0.3c-0.9,0-1.6,0.3-2.3,0.9
		c-0.6,0.6-1,1.3-1,2.1c0,0.8,0.2,1.5,0.7,1.9c0.4,0.4,1.1,0.8,2,1.1c0.9,0.3,1.6,0.7,2.1,1c0.4,0.4,0.7,0.9,0.7,1.6
		c0,0.6-0.2,1.2-0.7,1.6c-0.5,0.4-1.1,0.7-1.7,0.7c-0.4,0-0.9-0.1-1.3-0.3c-0.2-0.1-0.5-0.2-0.7-0.4c-0.3-0.2-0.5-0.3-0.8-0.5v1
		c0.1,0.1,0.3,0.2,0.5,0.3c0.2,0.1,0.4,0.2,0.7,0.3c0.5,0.2,1.1,0.4,1.8,0.4c0.9,0,1.6-0.3,2.3-0.9
		C336,220.4,336.3,219.7,336.3,218.9z"/>
	<polygon fill="#0067B4" points="346.2,211.1 346.2,210.4 336.7,210.4 336.7,211.1 341,211.1 341,221.8 341.9,221.8 341.9,211.1 	
		"/>
	<path fill="#0067B4" d="M354.8,221.8l-5.3-11.5h-0.5l-5.3,11.5h0.9l1.8-3.9h5.6l1.8,3.9H354.8z M351.8,217.1h-4.9l2.4-5.4
		L351.8,217.1z"/>
	<path fill="#0067B4" d="M364.6,216.8v-6.5h-0.9v6.4c0,1.3-0.4,2.4-1.1,3.2c-0.7,0.8-1.6,1.2-2.8,1.2c-1.2,0-2.1-0.4-2.9-1.2
		c-0.7-0.8-1.1-1.8-1.1-3.1v-6.5h-0.9v6.5c0,1.5,0.4,2.7,1.3,3.6c0.9,0.9,2,1.4,3.4,1.4c1.4,0,2.6-0.5,3.4-1.4
		C364.2,219.5,364.6,218.3,364.6,216.8z"/>
	<path fill="#0067B4" d="M375.1,221.8l-2.1-3.3c-0.2-0.2-0.3-0.5-0.5-0.7c-0.2-0.2-0.3-0.5-0.5-0.7c-0.3-0.5-0.7-0.8-1-1
		c0.6-0.2,1.1-0.5,1.5-1c0.4-0.4,0.7-1,0.7-1.8c0-1-0.3-1.7-1-2.2c-0.7-0.5-1.6-0.8-2.8-0.8h-2.9v11.4h0.9v-5.5h1.7
		c0.8,0,1.4,0.2,1.8,0.7c0.2,0.2,0.4,0.5,0.6,0.8c0.2,0.3,0.4,0.6,0.6,0.9l2,3.1L375.1,221.8L375.1,221.8z M372.3,213.3
		c0,0.7-0.3,1.3-0.8,1.7c-0.5,0.4-1.2,0.6-2.2,0.6h-1.9v-4.5h2c0.9,0,1.6,0.2,2.1,0.6C372,212.1,372.3,212.6,372.3,213.3z"/>
	<path fill="#0067B4" d="M386.8,221.8l-5.3-11.5h-0.5l-5.3,11.5h0.9l1.8-3.9h5.6l1.8,3.9H386.8z M383.8,217.1h-4.9l2.4-5.4
		L383.8,217.1z"/>
	<path fill="#0067B4" d="M398.5,221.8v-11.4h-0.9v10c-0.7-0.9-1.4-1.7-2.2-2.5s-1.4-1.6-2.2-2.5c-0.7-0.8-1.5-1.6-2.2-2.5
		c-0.7-0.8-1.4-1.7-2.2-2.5h-0.8v11.4h0.9v-10l8.7,10H398.5z"/>
	<polygon fill="#0067B4" points="409.3,211.1 409.3,210.4 399.9,210.4 399.9,211.1 404.2,211.1 404.2,221.8 405.1,221.8 
		405.1,211.1 	"/>
	<polygon fill="#0067B4" points="425.8,221.8 425.8,210.4 424.9,210.4 420.6,215.7 416.3,210.4 415.4,210.4 415.4,221.8 
		416.3,221.8 416.3,211.6 420.6,217 424.9,211.6 424.9,221.8 	"/>
	<polygon fill="#0067B4" points="434.1,221.8 434.1,221 428.7,221 428.7,216.4 433.9,216.4 433.9,215.7 428.7,215.7 428.7,211.1 
		434,211.1 434,210.4 427.8,210.4 427.8,221.8 	"/>
	<path fill="#0067B4" d="M445.6,221.8v-11.4h-0.9v10c-0.7-0.9-1.4-1.7-2.2-2.5c-0.7-0.8-1.4-1.6-2.2-2.5c-0.7-0.8-1.5-1.6-2.2-2.5
		c-0.7-0.8-1.4-1.7-2.2-2.5h-0.8v11.4h0.9v-10l8.7,10H445.6z"/>
	<path fill="#0067B4" d="M457,216.8v-6.5h-0.9v6.4c0,1.3-0.4,2.4-1.1,3.2c-0.7,0.8-1.6,1.2-2.8,1.2c-1.2,0-2.1-0.4-2.9-1.2
		c-0.7-0.8-1.1-1.8-1.1-3.1v-6.5h-0.9v6.5c0,1.5,0.4,2.7,1.3,3.6c0.9,0.9,2,1.4,3.4,1.4c1.4,0,2.6-0.5,3.4-1.4
		C456.6,219.5,457,218.3,457,216.8z"/>
	<polygon fill="#0067B4" points="472.3,211.1 472.3,210.4 462.8,210.4 462.8,211.1 467.1,211.1 467.1,221.8 468,221.8 468,211.1 	
		"/>
	<path fill="#0067B4" d="M482.3,221.8l-2.1-3.3c-0.2-0.2-0.3-0.5-0.5-0.7s-0.3-0.5-0.5-0.7c-0.3-0.5-0.7-0.8-1-1
		c0.6-0.2,1.1-0.5,1.5-1c0.4-0.4,0.7-1,0.7-1.8c0-1-0.3-1.7-1-2.2c-0.7-0.5-1.6-0.8-2.8-0.8h-2.9v11.4h0.9v-5.5h1.7
		c0.8,0,1.4,0.2,1.8,0.7c0.2,0.2,0.4,0.5,0.6,0.8c0.2,0.3,0.4,0.6,0.6,0.9l2,3.1L482.3,221.8L482.3,221.8z M479.4,213.3
		c0,0.7-0.3,1.3-0.8,1.7c-0.5,0.4-1.2,0.6-2.2,0.6h-1.9v-4.5h2c0.9,0,1.6,0.2,2.1,0.6C479.2,212.1,479.4,212.6,479.4,213.3z"/>
	<path fill="#0067B4" d="M494,221.8l-5.3-11.5h-0.5l-5.3,11.5h0.9l1.8-3.9h5.6l1.8,3.9H494z M491,217.1h-4.9l2.4-5.4L491,217.1z"/>
	<path fill="#0067B4" d="M505.7,221.8v-11.4h-0.9v10c-0.7-0.9-1.4-1.7-2.2-2.5c-0.7-0.8-1.4-1.6-2.2-2.5s-1.5-1.6-2.2-2.5
		c-0.7-0.8-1.4-1.7-2.2-2.5h-0.8v11.4h0.9v-10l8.7,10H505.7z"/>
	<path fill="#0067B4" d="M513.6,218.9c0-0.9-0.2-1.5-0.6-2c-0.4-0.5-1.2-0.9-2.4-1.3c-0.9-0.3-1.5-0.6-1.9-1
		c-0.4-0.3-0.6-0.8-0.6-1.4c0-0.6,0.2-1.1,0.7-1.5c0.4-0.4,1-0.6,1.7-0.6c0.6,0,1.1,0.1,1.5,0.3c0.2,0.1,0.4,0.2,0.6,0.3
		c0.2,0.1,0.3,0.2,0.5,0.3l0-1c-0.1,0-0.2-0.1-0.3-0.2c-0.2-0.1-0.4-0.2-0.6-0.3c-0.5-0.2-1.1-0.3-1.7-0.3c-0.9,0-1.6,0.3-2.3,0.9
		c-0.6,0.6-1,1.3-1,2.1c0,0.8,0.2,1.5,0.7,1.9c0.4,0.4,1.1,0.8,2,1.1c0.9,0.3,1.6,0.7,2.1,1c0.4,0.4,0.7,0.9,0.7,1.6
		c0,0.6-0.2,1.2-0.7,1.6c-0.5,0.4-1.1,0.7-1.7,0.7c-0.4,0-0.9-0.1-1.3-0.3c-0.2-0.1-0.5-0.2-0.7-0.4c-0.3-0.2-0.5-0.3-0.8-0.5v1
		c0.1,0.1,0.3,0.2,0.5,0.3c0.2,0.1,0.4,0.2,0.7,0.3c0.5,0.2,1.1,0.4,1.8,0.4c0.9,0,1.6-0.3,2.3-0.9
		C513.3,220.4,513.6,219.7,513.6,218.9z"/>
	<polygon fill="#0067B4" points="521.7,221.8 521.7,221 516.1,221 516.1,210.4 515.2,210.4 515.2,221.8 	"/>
	<path fill="#0067B4" d="M532.8,221.8l-5.3-11.5h-0.5l-5.3,11.5h0.9l1.8-3.9h5.6l1.8,3.9H532.8z M529.8,217.1h-4.9l2.4-5.4
		L529.8,217.1z"/>
	<polygon fill="#0067B4" points="539.9,211.1 539.9,210.4 530.5,210.4 530.5,211.1 534.7,211.1 534.7,221.8 535.6,221.8 
		535.6,211.1 	"/>
	<path fill="#0067B4" d="M551.2,216.1c0-1.7-0.6-3.1-1.7-4.2c-1.2-1.1-2.6-1.7-4.3-1.7c-1.7,0-3.2,0.6-4.3,1.7
		c-1.1,1.1-1.7,2.5-1.7,4.2c0,1.7,0.6,3.1,1.7,4.2c1.1,1.1,2.6,1.7,4.3,1.7c1.7,0,3.1-0.6,4.3-1.7
		C550.7,219.1,551.2,217.7,551.2,216.1z M550.3,216.1c0,1.4-0.5,2.6-1.5,3.6c-1,1-2.2,1.5-3.6,1.5c-1.4,0-2.6-0.5-3.6-1.5
		c-1-1-1.5-2.2-1.5-3.6c0-1.4,0.5-2.6,1.5-3.6c1-1,2.2-1.5,3.6-1.5s2.6,0.5,3.6,1.5C549.8,213.5,550.3,214.7,550.3,216.1z"/>
	<path fill="#0067B4" d="M561.6,221.8l-2.1-3.3c-0.2-0.2-0.3-0.5-0.5-0.7c-0.2-0.2-0.3-0.5-0.5-0.7c-0.3-0.5-0.7-0.8-1-1
		c0.6-0.2,1.1-0.5,1.5-1c0.4-0.4,0.7-1,0.7-1.8c0-1-0.3-1.7-1-2.2c-0.7-0.5-1.6-0.8-2.8-0.8H553v11.4h0.9v-5.5h1.7
		c0.8,0,1.4,0.2,1.8,0.7c0.2,0.2,0.4,0.5,0.6,0.8c0.2,0.3,0.4,0.6,0.6,0.9l2,3.1L561.6,221.8L561.6,221.8z M558.7,213.3
		c0,0.7-0.3,1.3-0.8,1.7c-0.5,0.4-1.2,0.6-2.2,0.6h-1.9v-4.5h2c0.9,0,1.6,0.2,2.1,0.6C558.5,212.1,558.7,212.6,558.7,213.3z"/>
</g>
</svg>
