<?xml version="1.0" encoding="utf-8"?>
<!-- Generator: Adobe Illustrator 17.1.0, SVG Export Plug-In . SVG Version: 6.00 Build 0)  -->
<!DOCTYPE svg PUBLIC "-//W3C//DTD SVG 1.1//EN" "http://www.w3.org/Graphics/SVG/1.1/DTD/svg11.dtd">
<svg version="1.1" id="Layer_1" xmlns="http://www.w3.org/2000/svg" xmlns:xlink="http://www.w3.org/1999/xlink" x="0px" y="0px"
	 viewBox="-20.2 -18.1 72.3 65" enable-background="new -20.2 -18.1 72.3 65" xml:space="preserve">
<g>
	<path fill="#0067B4" d="M4.4,15.3c0-0.8,0.1-1.5,0.2-2.3c0.2-1.9,0.6-3.7,1-5.5c0.3-0.9,0.5-1.8,0.8-2.7c0.4-0.9,0.7-1.7,1.1-2.5
		c0.8-1.6,1.7-3.1,2.8-4.4c0.3-0.3,0.5-0.6,0.8-1c0.3-0.3,0.6-0.6,0.8-0.8c0.6-0.5,1.1-1.1,1.6-1.5c1.1-0.8,2.2-1.7,3.2-2.2
		c1-0.6,1.8-1,2.6-1.3c1.5-0.6,2.4-0.9,2.4-0.9s-0.7,0.6-2,1.5c-0.7,0.4-1.4,1.1-2.2,1.8c-0.9,0.7-1.6,1.6-2.6,2.5
		c-0.5,0.5-0.8,1-1.3,1.6c-0.2,0.3-0.4,0.5-0.7,0.8c-0.2,0.3-0.4,0.6-0.6,0.9c-0.8,1.2-1.4,2.6-2.1,4.1C10,4.3,9.8,5,9.5,5.8
		C9.3,6.6,9.1,7.4,8.9,8.2c-0.3,1.7-0.7,3.4-0.8,5.1C8,14,7.9,14.7,7.9,15.3c14,0,24.8,0,39.9,0c0.1-0.7,0.1-1.3,0.1-2
		c0-12.7-9.3-23.2-21.2-24.6c0.8-0.7,1.3-1.7,1.3-2.9c0-2.2-1.8-4-3.9-4c-2.2,0-4,1.8-4,4c0,1.1,0.5,2.2,1.3,2.9
		C9.3-9.9,0,0.6,0,13.3c0,0.7,0,1.3,0.1,2C1.6,15.3,3,15.3,4.4,15.3z"/>
	<rect x="-4.3" y="16.8" fill="#0067B4" width="56.5" height="5"/>
	<path fill="#0067B4" d="M29,25.3c-2.9,1.4-12.9,5-12.9,5L4.2,29.6c0,0,6.8-1.9,9.4-2.5c2.6-0.6,1.5-3.6,0-3.6s-14.1,0.5-14.1,0.5
		l-8.4,3l2.2,14.1c0,0,1.7-3,3.5-3c1.7,0,16.8,0.4,18.8,0c2-0.4,14.5-8.9,16-9.9C33.1,27.3,31.9,23.9,29,25.3z"/>
	<polygon fill="#0067B4" points="-20.2,28.6 -20.2,46.9 -7.3,44.5 -10.5,26.9 	"/>
</g>
</svg>
