<?xml version="1.0" encoding="utf-8"?>
<!-- Generator: Adobe Illustrator 17.1.0, SVG Export Plug-In . SVG Version: 6.00 Build 0)  -->
<!DOCTYPE svg PUBLIC "-//W3C//DTD SVG 1.1//EN" "http://www.w3.org/Graphics/SVG/1.1/DTD/svg11.dtd">
<svg version="1.1" id="Capa_1" xmlns="http://www.w3.org/2000/svg" xmlns:xlink="http://www.w3.org/1999/xlink" x="0px" y="0px"
	 viewBox="95.5 92.5 63.8 65" enable-background="new 95.5 92.5 63.8 65" xml:space="preserve">
<g id="Layer_2">
</g>
<g id="Layer_x5F_1_x5F_1">
	<g>
		<path fill="#0067B4" d="M158.8,112.7c-0.4-0.4-1.6-1-2-0.6l0,0l0,0l-13.6,11.5c0,0-1.2,1.8-3.6,4c-4.4-0.6-9.5-0.8-15.1-1l0,0
			c-0.2,0-0.4,0-0.6,0c-0.2,0-0.4,0-0.6,0l0,0c-6.9,0-13.6,0.6-18.5,1.4c-6.5,1.2-9.3,2.9-9.3,5.4c0,0.2,0,0.4,0,0.4
			c-0.4,8.3,6.7,23.6,17.9,23.6c4,0,7.3,0,9.9,0c0.4,0,0.6,0,1,0c2.8,0,6.1,0,9.9,0c11.1,0,18.3-15.3,17.9-23.4c0-0.2,0-0.4,0-0.4
			c0-2.4-2.8-4-9.3-5.3c-0.2,0-0.2,0-0.4,0c1.8-1.2,2.8-1.6,2.8-1.6l13.6-11.6l0,0l0,0C159.6,114.5,159.2,113.1,158.8,112.7z
			 M99.1,133.5c2.2-1.2,10.5-3.2,24.8-3.2c4.4,0,8.5,0.2,11.8,0.6c-1,0.8-2,1.4-3.2,2.2l0,0c-3-2.2-7.9-2-11.4,0.8
			c-1,0.8-1.6,1.8-2.2,2.8C107.7,136.4,100.9,134.7,99.1,133.5z M148.7,133.5c-1.6,0.8-6.1,2-13.6,2.8c0-0.2-0.2-0.4-0.2-0.8
			c1.4-1.8,2.8-3.2,4-4.4C143.9,131.9,147.3,132.9,148.7,133.5z"/>
		<path fill="#0067B4" d="M110.8,111.9c0.2,0.4,0.4,0.6,0.8,1l0.6,0.8c0.2,0.2,0.4,0.4,0.4,0.8c0.2,0.6,0.4,1,0.4,1.6
			c0.2,1.2,0.2,2.4,0.2,3.6c-0.2,2.2-0.4,3.8-0.4,3.8s1.2-1.2,2-3.4c0.2-0.6,0.4-1.2,0.6-1.8c0.2-0.6,0.2-1.4,0.2-2.2
			c0-0.8,0-1.6-0.4-2.6c0-0.8-0.2-1.2-0.4-1.6c-0.2-0.2-0.4-0.4-0.6-0.6l-0.2-0.2v-0.2l0,0l0,0l0,0l0,0c-0.2-0.2-0.6-0.6-0.6-0.8
			c0-0.2-0.2-0.4-0.4-0.6c-0.2-0.6-0.4-1.2-0.4-1.8c-0.2-1.2-0.2-2.4-0.2-3.6c0.2-2.3,0.4-3.9,0.4-3.9s-1.2,1.2-2,3.4
			c-0.6,1.2-1,2.6-1,4.2c0,0.8,0,1.6,0.4,2.6C110.2,110.9,110.6,111.3,110.8,111.9z"/>
		<path fill="#0067B4" d="M117.7,103.9c0.4,0.6,0.6,0.6,0.8,1l0.6,0.8c0.2,0.2,0.4,0.4,0.4,0.8c0.2,0.6,0.4,1,0.4,1.6
			c0.2,1.2,0.2,2.4,0.2,3.6c-0.2,2.2-0.4,3.8-0.4,3.8s1.2-1.2,2-3.4c0.2-0.6,0.4-1.2,0.6-1.8c0.2-0.6,0.2-1.4,0.2-2.2
			c0-0.8,0-1.6-0.4-2.6c0-0.6-0.2-1-0.4-1.4c-0.2-0.2-0.2-0.4-0.4-0.6l-0.2-0.2l-0.2-0.2l0,0l0,0l0,0c-0.2-0.2-0.6-0.6-0.6-0.8
			c0-0.2-0.2-0.4-0.4-0.6c-0.2-0.6-0.4-1.2-0.4-1.8c-0.2-1.2-0.2-2.4-0.2-3.6c0.2-2.2,0.4-3.8,0.4-3.8s-1.2,1.2-2,3.4
			c-0.4,1.2-0.8,2.4-0.8,4.2c0,0.8,0,1.6,0.4,2.6C117.3,102.9,117.5,103.5,117.7,103.9z"/>
		<path d="M121,103.1L121,103.1L121,103.1z"/>
		<path fill="#0067B4" d="M126.5,111.1c0.2,0.6,0.4,0.6,0.8,1l0.6,0.8c0.2,0.2,0.4,0.4,0.4,0.8c0.2,0.6,0.4,1,0.4,1.6
			c0.2,1.2,0.2,2.4,0.2,3.6c-0.2,2.2-0.4,3.8-0.4,3.8s1.2-1.2,2-3.4c0.2-0.6,0.4-1.2,0.6-1.8c0.2-0.6,0.2-1.4,0.2-2.2
			c0-0.8,0-1.6-0.4-2.6c-0.2-0.4-0.4-0.8-0.6-1.2c0-0.4-0.2-0.6-0.4-0.8l-0.2-0.2l-0.2-0.2l0,0l0,0l0,0l0,0
			c-0.2-0.2-0.6-0.6-0.6-0.8c0-0.2-0.2-0.4-0.4-0.6c-0.2-0.6-0.4-1.2-0.4-1.8c-0.2-1.2-0.2-2.4-0.2-3.6c0.2-2.2,0.4-3.8,0.4-3.8
			s-1.2,1.2-2,3.4c-0.4,1.2-0.8,2.4-0.8,4.2c0,0.8,0,1.6,0.4,2.6C125.9,110.1,126.1,110.7,126.5,111.1z"/>
	</g>
</g>
</svg>
