<?xml version="1.0" encoding="utf-8"?>
<!-- Generator: Adobe Illustrator 17.1.0, SVG Export Plug-In . SVG Version: 6.00 Build 0)  -->
<!DOCTYPE svg PUBLIC "-//W3C//DTD SVG 1.1//EN" "http://www.w3.org/Graphics/SVG/1.1/DTD/svg11.dtd">
<svg version="1.1" id="Capa_1" xmlns="http://www.w3.org/2000/svg" xmlns:xlink="http://www.w3.org/1999/xlink" x="0px" y="0px"
	 viewBox="0 0 92.826 99.767" enable-background="new 0 0 92.826 99.767" xml:space="preserve">
<g>
	<path fill-rule="evenodd" clip-rule="evenodd" fill="#0067B4" d="M68.181,0c8.09-0.03,15.374,1.515,19.079,5.127
		c3.706,3.613,5.559,8.441,5.56,14.484l0.006,30.941l-16.925,0.002l-0.005-30.547c0-2.627-0.801-4.664-2.401-6.109
		c-1.6-1.445-4.084-2.167-7.452-2.167c-3.368,0-5.978,0.756-7.83,2.267c-1.852,1.511-2.778,3.712-2.778,6.602l0.005,29.956
		L38.894,50.56l-0.006-30.35c-0.085-2.102-1.139-4.04-3.16-5.813c-2.021-1.773-4.674-2.66-7.958-2.659
		c-3.284,0-5.936,0.822-7.957,2.465c-2.021,1.643-3.031,3.581-3.03,5.814l0.005,30.547l-16.798,0.002L-0.145,0
		C-0.145,0,51.332,0.062,68.181,0z"/>
	<path fill-rule="evenodd" clip-rule="evenodd" fill="#0067B4" d="M24.528,99.767c-8.09,0.001-15.374-1.516-19.079-5.129
		c-3.706-3.613-5.443-8.441-5.444-14.485l-0.006-30.941l16.809-0.002l0.005,30.547c0.382,3.16,1.951,4.664,3.551,6.109
		c1.6,1.445,3.728,2.167,7.096,2.167c3.368,0,6.531-0.872,8.383-2.383c1.852-1.511,3.105-3.596,3.104-6.487l-0.005-29.956
		l16.472-0.002l0.006,30.35c0.085,2.102,0.767,4.405,2.789,6.179c2.021,1.773,4.488,2.295,7.772,2.294
		c3.284-0.001,5.497-0.822,7.518-2.465c2.021-1.643,2.427-3.581,2.426-5.814l-0.005-30.547L92.821,49.2l0.033,50.564
		C92.854,99.764,31.513,99.766,24.528,99.767z"/>
	<g>
		<g>
			<polygon fill="#0067B4" points="12.047,11.004 83.032,11.004 83.032,90.635 12.047,90.635 12.047,11.004 			"/>
			<path fill="#0067B4" d="M47.539,50.82"/>
		</g>
		<g>
			<polygon fill="none" stroke="#0067B4" stroke-width="1.2678" stroke-miterlimit="3.8637" points="12.047,11.004 83.032,11.004 
				83.032,90.635 12.047,90.635 12.047,11.004 			"/>
			<path fill="none" stroke="#0067B4" stroke-width="1.2678" stroke-miterlimit="3.8637" d="M47.539,50.82"/>
		</g>
	</g>
	<g>
		<g>
			<path fill-rule="evenodd" clip-rule="evenodd" fill="#0067B4" d="M62.275,12.051c5.898-0.021,11.208,1.089,13.909,3.687
				c2.702,2.598,4.053,6.07,4.053,10.416l0.004,22.251l-12.339,0.002l-0.004-21.967c0-1.889-0.584-3.354-1.75-4.393
				c-1.167-1.039-2.978-1.558-5.433-1.558c-2.455,0-4.358,0.544-5.709,1.631c-1.35,1.087-2.025,2.669-2.025,4.748l0.004,21.542
				L40.924,48.41L40.92,26.585c-0.062-1.512-0.83-2.905-2.304-4.181c-1.473-1.275-3.407-1.913-5.801-1.912
				c-2.394,0-4.328,0.591-5.801,1.772c-1.473,1.181-2.21,2.575-2.209,4.181l0.004,21.967l-12.246,0.002l-0.099-36.363
				C12.463,12.051,49.991,12.095,62.275,12.051z"/>
		</g>
		<g>
			<path fill-rule="evenodd" clip-rule="evenodd" fill="#0067B4" d="M30.434,87.717c-5.898,0.001-11.208-1.09-13.909-3.688
				c-2.702-2.598-3.968-6.07-3.969-10.416l-0.004-22.251l12.254-0.002l0.004,21.967c0.279,2.272,1.422,3.354,2.589,4.393
				c1.167,1.039,2.718,1.559,5.173,1.558c2.455,0,4.761-0.627,6.111-1.714c1.35-1.087,2.263-2.586,2.263-4.665l-0.004-21.542
				l12.009-0.002l0.004,21.825c0.062,1.512,0.56,3.168,2.033,4.443c1.474,1.275,3.272,1.65,5.666,1.65
				c2.394,0,4.008-0.591,5.481-1.772c1.473-1.181,1.769-2.575,1.769-4.181L67.9,51.354l12.246-0.002l0.099,36.362
				C80.246,87.714,35.526,87.716,30.434,87.717z"/>
		</g>
		<path fill="none" stroke="#FFFFFF" stroke-width="0.9921" stroke-miterlimit="3.8637" d="M62.275,12.051
			c5.898-0.021,11.208,1.089,13.909,3.687c2.702,2.598,4.053,6.07,4.053,10.416l0.004,22.251l-12.339,0.002l-0.004-21.967
			c0-1.889-0.584-3.354-1.75-4.393c-1.167-1.039-2.978-1.558-5.433-1.558c-2.455,0-4.358,0.544-5.709,1.631
			c-1.35,1.087-2.025,2.669-2.025,4.748l0.004,21.542L40.924,48.41L40.92,26.585c-0.062-1.512-0.83-2.905-2.304-4.181
			c-1.473-1.275-3.407-1.913-5.801-1.912c-2.394,0-4.328,0.591-5.801,1.772c-1.473,1.181-2.21,2.575-2.209,4.181l0.004,21.967
			l-12.246,0.002l-0.099-36.363C12.463,12.051,49.991,12.095,62.275,12.051z M30.434,87.717c-5.898,0.001-11.208-1.09-13.909-3.688
			c-2.702-2.598-3.968-6.07-3.969-10.416l-0.004-22.251l12.254-0.002l0.004,21.967c0.279,2.272,1.422,3.354,2.589,4.393
			c1.167,1.039,2.718,1.559,5.173,1.558c2.455,0,4.761-0.627,6.111-1.714c1.35-1.087,2.263-2.586,2.263-4.665l-0.004-21.542
			l12.009-0.002l0.004,21.825c0.062,1.512,0.56,3.168,2.033,4.443c1.474,1.275,3.272,1.65,5.666,1.65
			c2.394,0,4.008-0.591,5.481-1.772c1.473-1.181,1.769-2.575,1.769-4.181L67.9,51.354l12.246-0.002l0.099,36.362L30.434,87.717z"/>
	</g>
	<g>
		<path fill-rule="evenodd" clip-rule="evenodd" fill="#FFFFFF" d="M32.245,43.5l-1.116,30.554c-0.09,1.792,4.161,1.881,3.982,0
			L33.906,43.5c-0.062-2.25,2.302-2.55,2.579-5.117c0.467-2.721-0.52-13.875-0.887-13.875c-0.395-0.002,0.203,12.224-1.028,12.76
			c-1.177-0.52-1.047-12.933-1.439-12.933c-0.376,0-0.202,12.475-1.593,12.933c-1.173-0.505-0.664-12.763-1.049-12.76
			c-0.334,0-1.3,11.003-0.899,13.875C29.799,40.87,32.329,41.23,32.245,43.5z"/>
		
			<path fill-rule="evenodd" clip-rule="evenodd" fill="none" stroke="#FFFFFF" stroke-width="0.4604" stroke-linejoin="round" stroke-miterlimit="3.8637" d="
			M32.245,43.5l-1.116,30.554c-0.09,1.792,4.161,1.881,3.982,0L33.906,43.5c-0.062-2.25,2.302-2.55,2.579-5.117
			c0.467-2.721-0.52-13.875-0.887-13.875c-0.395-0.002,0.203,12.224-1.028,12.76c-1.177-0.52-1.047-12.933-1.439-12.933
			c-0.376,0-0.202,12.475-1.593,12.933c-1.173-0.505-0.664-12.763-1.049-12.76c-0.334,0-1.3,11.003-0.899,13.875
			C29.799,40.87,32.329,41.23,32.245,43.5z"/>
	</g>
	<g>
		<path fill-rule="evenodd" clip-rule="evenodd" fill="#FFFFFF" d="M58.514,74.115c-0.109,1.613,4.385,1.658,4.205,0
			c-0.954-17.881-0.71-25.819,0-47.245c-0.12-3.271-2.041-3.212-2.934-0.113c-1.605,5.402-3.959,14.472,0.3,23.94
			C60.052,58.132,59.483,63.522,58.514,74.115z"/>
		
			<path fill-rule="evenodd" clip-rule="evenodd" fill="none" stroke="#FFFFFF" stroke-width="0.4604" stroke-linejoin="round" stroke-miterlimit="3.8637" d="
			M58.514,74.115c-0.109,1.613,4.385,1.658,4.205,0c-0.954-17.881-0.71-25.819,0-47.245c-0.12-3.271-2.041-3.212-2.934-0.113
			c-1.605,5.402-3.959,14.472,0.3,23.94C60.052,58.132,59.483,63.522,58.514,74.115z"/>
	</g>
</g>
</svg>
