<?xml version="1.0" encoding="utf-8"?>
<!-- Generator: Adobe Illustrator 17.1.0, SVG Export Plug-In . SVG Version: 6.00 Build 0)  -->
<!DOCTYPE svg PUBLIC "-//W3C//DTD SVG 1.1//EN" "http://www.w3.org/Graphics/SVG/1.1/DTD/svg11.dtd">
<svg version="1.1" xmlns="http://www.w3.org/2000/svg" xmlns:xlink="http://www.w3.org/1999/xlink" x="0px" y="0px"
	 viewBox="0 0 56.1 65" enable-background="new 0 0 56.1 65" xml:space="preserve">
<g id="Layer_2">
</g>
<g id="Layer_x5F_1_x5F_1">
	<g>
		<polygon fill="#0067B4" points="28,8.4 6.3,0.7 6.3,47.9 28,40.9 		"/>
		<polygon fill="#FFFFFF" points="27.5,8.3 50,0.7 50,47.9 27.5,40.9 		"/>
		<polygon fill="#FFFFFF" points="0.7,56.2 27.5,47.3 27.5,8.3 0.7,17.3 		"/>
		<polygon fill="#0067B4" points="39.7,56.8 43.5,63 45.5,57.2 		"/>
		<g>
			<path fill="#0067B4" d="M9.8,21.7c-0.1-0.1,0.2,1.1,0.6,1.6c0.8,0.8,1.4,0.9,1.8,0.9c0.7,0,1.7-0.2,2.2-0.4
				c0.5-0.2,1.5-0.7,1.8-1.4c0.1-0.1,0.3-0.4,0.1-1c-0.1-0.5-0.4-0.6-0.8-0.6c-0.4,0-1.5,0.3-2,0.5c-0.5,0.2-1.6,0.5-2.1,0.6
				C11,22.1,10,21.9,9.8,21.7z"/>
			<path fill="#0067B4" d="M23.3,37.1c-0.2-0.1-4.6-1.9-5.2-2.2c-0.5-0.2-1.7-0.8-2.3-1c1.6-2.5,2.7-4.5,2.8-4.7
				c0.3-0.5,2-3.9,2-4.2c0-0.2,0.1-1,0.1-1.2c0-0.2-0.7,0.2-1.5,0.5c-0.9,0.3-2.5,1.4-3.2,1.5c-0.6,0.1-2.7,0.9-3.7,1.3
				s-3,1-3.8,1.2c-0.8,0.2-1.5,0.2-2,0.4c0,0,0.1,0.6,0.2,0.8c0.1,0.2,0.6,0.7,1.1,0.8c0.5,0.1,1.3,0.1,1.7,0c0.4-0.1,1-0.4,1.1-0.5
				c0.1-0.1,0-0.6,0.1-0.7c0.2-0.1,2.1-0.6,2.9-0.8c0.8-0.2,3.6-1.2,4-1.2c-0.1,0.4-2.4,5-3.2,6.4c-0.7,1.4-5.1,7.4-6,8.5
				c-0.7,0.8-2.4,2.9-3,3.3c0.1,0,1.2,0,1.4-0.2c1.2-0.7,3.2-3.2,3.8-4c1.9-2.2,3.6-4.6,4.9-6.6h0c0.3,0.1,2.3,1.8,2.9,2.2
				c0.5,0.4,2.7,1.6,3.2,1.8c0.5,0.2,2.3,1,2.3,0.7C23.9,38.8,23.5,37.2,23.3,37.1z"/>
		</g>
		<path fill-rule="evenodd" clip-rule="evenodd" fill="#0067B4" d="M13.2,59.8c0.4,0.3,0.8,0.5,1.3,0.7c0.9,0.4,1.9,0.9,2.8,1.3
			c1.3,0.5,2.6,0.9,3.9,1.2c0.7,0.2,1.5,0.3,2.3,0.4c0.1,0,2.1,0.3,2.6,0.3h2.1c0.8-0.1,1.6-0.1,2.4-0.2c0.7-0.1,1.4-0.2,2.1-0.4
			c0.5-0.1,1-0.2,1.6-0.4c0.5-0.1,1-0.3,1.6-0.5c0.3-0.1,0.7-0.3,1.1-0.4c0.3-0.1,0.7-0.3,1-0.4c0.4-0.2,0.9-0.4,1.4-0.7
			c0.4-0.2,0.8-0.4,1.2-0.7c0.3-0.2,1-0.7,1.4-0.7c0.4,0,0.7,0.4,0.7,0.7c0,0.7-0.9,0.9-1.3,1.2c-0.4,0.3-1,0.5-1.4,0.8
			c-0.9,0.5-1.9,0.9-2.8,1.3c-1.2,0.4-2.5,0.9-3.7,1.1c-0.4,0.1-0.9,0.2-1.3,0.3c-0.2,0-2.7,0.4-3.3,0.4h-3.1
			c-0.8-0.1-1.7-0.2-2.5-0.3c-0.7-0.1-1.5-0.3-2.2-0.4c-0.6-0.1-1.2-0.3-1.7-0.4c-0.9-0.3-1.8-0.6-2.7-0.9c-1.6-0.6-3.3-1.4-4.9-2.4
			c-0.3-0.2-0.3-0.4-0.3-0.6c0-0.3,0.3-0.7,0.7-0.7C12.4,59.2,13.1,59.8,13.2,59.8z"/>
		<path fill-rule="evenodd" clip-rule="evenodd" fill="#0067B4" d="M26.8,46.7L1.4,55.2V17.8l25.4-8.4V46.7z M28.2,8.2v39.1
			c0,0.1-0.1,0.2-0.2,0.3c0,0.1-0.1,0.2-0.2,0.2c-0.6,0.2-26.8,9-27.1,9c-0.3,0-0.5-0.2-0.7-0.5c0,0,0,0,0-0.1V17.2
			c0-0.1,0.1-0.3,0.2-0.4c0.2-0.3,0.5-0.3,0.7-0.4c0.4-0.1,26.2-8.8,26.6-8.8C27.7,7.7,28.2,7.8,28.2,8.2z"/>
		<path fill-rule="evenodd" clip-rule="evenodd" fill="#0067B4" d="M49.3,46.9l-21.1-6.6V8.8l21.1-7.2V46.9z M50.7,0.7v47.1
			c0,0.5-0.4,0.8-0.7,0.8c-0.3,0-2.5-0.7-2.9-0.9c-2.9-0.9-5.9-1.8-8.8-2.7c-0.7-0.2-1.3-0.4-2-0.6c-0.6-0.2-1.2-0.3-1.7-0.5
			c-2.5-0.8-5-1.5-7.5-2.4c-0.1,0-0.3-0.3-0.3-0.4V8.2c0-0.1,0.1-0.3,0.2-0.3c0.2-0.2,8.2-2.9,11.3-3.9C39.2,3.6,49.7,0,50,0
			C50.4,0,50.7,0.3,50.7,0.7z"/>
		<polygon fill="#0067B4" points="56.1,56.8 27.9,47.8 28,8.7 56.1,17.6 		"/>
		<g>
			<path fill-rule="evenodd" clip-rule="evenodd" fill="#FFFFFF" d="M41.9,26.2l-2.8,6.7l5.1,1.5L41.9,26.2z M40.2,19.8l3.6,1.1
				l6.6,23.8l-3.7-1.1l-1.3-4.9l-7.7-2.3l-1.7,4l-3.7-1.1L40.2,19.8z"/>
		</g>
	</g>
</g>
</svg>
