<?xml version="1.0" encoding="utf-8"?>
<!-- Generator: Adobe Illustrator 17.1.0, SVG Export Plug-In . SVG Version: 6.00 Build 0)  -->
<!DOCTYPE svg PUBLIC "-//W3C//DTD SVG 1.1//EN" "http://www.w3.org/Graphics/SVG/1.1/DTD/svg11.dtd">
<svg version="1.1" id="Capa_1" xmlns="http://www.w3.org/2000/svg" xmlns:xlink="http://www.w3.org/1999/xlink" x="0px" y="0px"
	 viewBox="104.6 92.5 40.9 65" enable-background="new 104.6 92.5 40.9 65" xml:space="preserve">
<g id="Layer_2">
</g>
<g>
	<path fill="#0067B4" d="M131.4,112.8c0,3.6-2.9,6.5-6.5,6.5c-3.6,0-6.5-2.9-6.5-6.5s3-6.5,6.5-6.5
		C128.5,106.3,131.4,109.2,131.4,112.8z M132.6,112.8c0,4.3-3.4,7.7-7.7,7.7c-4.3,0-7.7-3.4-7.7-7.7c0-4.3,3.4-7.7,7.7-7.7
		C129.2,105.1,132.6,108.5,132.6,112.8z M131.9,112.8c0-3.9-3.2-7-7-7c-3.9,0-7,3.2-7,7c0,3.9,3.2,7,7,7
		C128.8,119.8,131.9,116.7,131.9,112.8z M145.4,113c0,11.3-20.5,44.5-20.5,44.5s-20.4-33.3-20.4-44.5c0-11.3,9.2-20.5,20.5-20.5
		C136.2,92.5,145.4,101.7,145.4,113z M140.8,113c0-8.8-7-15.9-15.8-15.9s-15.9,7-15.9,15.9c0,8.7,7.1,15.9,15.9,15.9
		S140.8,121.7,140.8,113z"/>
	<g>
		<path fill="#0067B4" stroke="#0067B4" stroke-width="0.4604" stroke-linejoin="round" stroke-miterlimit="3.8637" d="M115.7,109.6
			l-0.4,11.1c0,0.6,1.5,0.7,1.4,0l-0.4-11.1c0-0.8,0.8-0.9,0.9-1.9c0.2-1-0.2-5-0.3-5c-0.1,0,0.1,4.4-0.4,4.6
			c-0.4-0.2-0.4-4.7-0.5-4.7s-0.1,4.5-0.6,4.7c-0.4-0.2-0.2-4.6-0.4-4.6c-0.1,0-0.5,4-0.3,5C114.8,108.6,115.7,108.8,115.7,109.6z"
			/>
	</g>
	<g>
		<path fill="#0067B4" stroke="#0067B4" stroke-width="0.4604" stroke-linejoin="round" stroke-miterlimit="3.8637" d="M133.1,120.7
			c0,0.6,1.6,0.6,1.5,0c-0.3-6.5-0.3-9.4,0-17.1c0-1.2-0.7-1.2-1.1,0c-0.6,2-1.4,5.2,0.1,8.7C133.7,114.9,133.5,116.8,133.1,120.7z"
			/>
	</g>
</g>
</svg>
