<?xml version="1.0" encoding="utf-8"?>
<!-- Generator: Adobe Illustrator 17.1.0, SVG Export Plug-In . SVG Version: 6.00 Build 0)  -->
<!DOCTYPE svg PUBLIC "-//W3C//DTD SVG 1.1//EN" "http://www.w3.org/Graphics/SVG/1.1/DTD/svg11.dtd">
<svg version="1.1" id="Capa_1" xmlns="http://www.w3.org/2000/svg" xmlns:xlink="http://www.w3.org/1999/xlink" x="0px" y="0px"
	 viewBox="400.5 562.8 40.9 65" enable-background="new 400.5 562.8 40.9 65" xml:space="preserve">
<g id="Layer_2">
</g>
<g>
	<path fill="#0067B4" d="M427.4,583.1c0,3.6-2.9,6.5-6.5,6.5s-6.5-2.9-6.5-6.5c0-3.6,3-6.5,6.5-6.5
		C424.5,576.6,427.4,579.5,427.4,583.1z M428.6,583.1c0,4.3-3.4,7.7-7.7,7.7c-4.3,0-7.7-3.4-7.7-7.7s3.4-7.7,7.7-7.7
		C425.2,575.4,428.6,578.8,428.6,583.1z M427.9,583.1c0-3.9-3.2-7-7-7c-3.9,0-7,3.2-7,7c0,3.9,3.2,7,7,7
		C424.8,590.1,427.9,587,427.9,583.1z M441.4,583.3c0,11.3-20.5,44.5-20.5,44.5s-20.4-33.3-20.4-44.5c0-11.3,9.2-20.5,20.5-20.5
		C432.2,562.8,441.4,572,441.4,583.3z M436.8,583.3c0-8.8-7-15.9-15.8-15.9c-8.8,0-15.9,7-15.9,15.9c0,8.7,7.1,15.9,15.9,15.9
		C429.8,599.2,436.8,592,436.8,583.3z"/>
	<g>
		<path fill="#0067B4" stroke="#0067B4" stroke-width="0.4604" stroke-linejoin="round" stroke-miterlimit="3.8637" d="M410.5,580.6
			l-0.4,11.1c0,0.6,1.5,0.7,1.4,0l-0.4-11.1c0-0.8,0.8-0.9,0.9-1.9c0.2-1-0.2-5-0.3-5s0.1,4.4-0.4,4.6c-0.4-0.2-0.4-4.7-0.5-4.7
			c-0.1,0-0.1,4.5-0.6,4.7c-0.4-0.2-0.2-4.6-0.4-4.6c-0.1,0-0.5,4-0.3,5C409.6,579.6,410.5,579.8,410.5,580.6z"/>
	</g>
	<g>
		<path fill="#0067B4" stroke="#0067B4" stroke-width="0.4604" stroke-linejoin="round" stroke-miterlimit="3.8637" d="M430.5,591.8
			c0,0.6,1.6,0.6,1.5,0c-0.3-6.5-0.3-9.4,0-17.1c0-1.2-0.7-1.2-1.1,0c-0.6,2-1.4,5.2,0.1,8.7C431.1,586,430.9,587.9,430.5,591.8z"/>
	</g>
</g>
</svg>
