<?xml version="1.0" encoding="utf-8"?>
<!-- Generator: Adobe Illustrator 17.1.0, SVG Export Plug-In . SVG Version: 6.00 Build 0)  -->
<!DOCTYPE svg PUBLIC "-//W3C//DTD SVG 1.1//EN" "http://www.w3.org/Graphics/SVG/1.1/DTD/svg11.dtd">
<svg version="1.1" xmlns="http://www.w3.org/2000/svg" xmlns:xlink="http://www.w3.org/1999/xlink" x="0px" y="0px"
	 viewBox="0 0 153.071 153.071" enable-background="new 0 0 153.071 153.071" xml:space="preserve">
<g id="Fondo">
</g>
<g id="GuÌas">
</g>
<g id="Primer_plano">
	<g>
		<g>
			<path fill-rule="evenodd" clip-rule="evenodd" fill="#0067B4" d="M99.836-0.58c8.662-0.032,16.46,1.622,20.428,5.489
				c3.968,3.868,5.952,9.037,5.953,15.508l0.006,33.128l-18.121,0.002l-0.006-32.706c-0.001-2.813-0.858-4.994-2.571-6.541
				c-1.713-1.547-4.373-2.32-7.979-2.32c-3.606,0-6.401,0.81-8.384,2.428c-1.983,1.618-2.974,3.974-2.974,7.069l0.006,32.073
				l-17.715,0.002l-0.006-32.495c-0.091-2.251-1.219-4.325-3.383-6.224c-2.164-1.899-5.004-2.848-8.52-2.847
				c-3.516,0-6.356,0.88-8.519,2.639c-2.164,1.759-3.245,3.834-3.245,6.225l0.006,32.706l-17.985,0.002L26.681-0.58
				C26.681-0.58,81.796-0.514,99.836-0.58z"/>
			<path fill-rule="evenodd" clip-rule="evenodd" fill="#0067B4" d="M53.097,106.237c-8.662,0.001-16.46-1.623-20.428-5.491
				c-3.967-3.868-5.827-9.037-5.828-15.508l-0.006-33.128l17.997-0.002l0.006,32.706c0.41,3.383,2.089,4.994,3.802,6.54
				c1.713,1.547,3.992,2.321,7.598,2.32c3.606,0,6.992-0.934,8.975-2.552c1.983-1.618,3.324-3.85,3.323-6.945L68.53,52.105
				l17.637-0.002l0.006,32.495c0.091,2.251,0.822,4.717,2.986,6.615c2.164,1.899,4.805,2.457,8.321,2.456
				c3.516-0.001,5.886-0.88,8.049-2.639c2.163-1.759,2.598-3.834,2.598-6.225l-0.006-32.706l18.096-0.002l0.035,54.137
				C126.252,106.234,60.576,106.236,53.097,106.237z"/>
			<g>
				<g>
					<polygon fill="#0067B4" points="39.734,11.201 115.735,11.201 115.735,96.46 39.734,96.46 39.734,11.201 					"/>
					<path fill="#0067B4" d="M77.735,53.831"/>
				</g>
				<g>
					<polygon fill="none" stroke="#0067B4" stroke-width="1.2678" stroke-miterlimit="3.8637" points="39.734,11.201 
						115.735,11.201 115.735,96.46 39.734,96.46 39.734,11.201 					"/>
					<path fill="none" stroke="#0067B4" stroke-width="1.2678" stroke-miterlimit="3.8637" d="M77.735,53.831"/>
				</g>
			</g>
			<g>
				<g>
					<path fill-rule="evenodd" clip-rule="evenodd" fill="#0067B4" d="M93.512,12.322c6.315-0.023,12,1.166,14.892,3.948
						c2.893,2.782,4.339,6.499,4.34,11.152l0.004,23.823l-13.211,0.002l-0.004-23.52c0-2.023-0.625-3.591-1.874-4.704
						c-1.249-1.113-3.188-1.669-5.817-1.668c-2.629,0-4.666,0.582-6.112,1.746c-1.446,1.163-2.168,2.858-2.168,5.083l0.004,23.064
						l-12.914,0.002l-0.004-23.368c-0.066-1.619-0.889-3.111-2.466-4.476c-1.578-1.365-3.648-2.048-6.211-2.048
						c-2.563,0-4.634,0.633-6.211,1.898c-1.577,1.265-2.366,2.757-2.365,4.477l0.004,23.519l-13.112,0.002L40.18,12.322
						C40.18,12.322,80.36,12.37,93.512,12.322z"/>
				</g>
				<g>
					<path fill-rule="evenodd" clip-rule="evenodd" fill="#0067B4" d="M59.421,93.335c-6.315,0.001-12-1.167-14.892-3.949
						c-2.893-2.781-4.248-6.499-4.249-11.152l-0.004-23.823l13.12-0.002l0.004,23.519c0.299,2.433,1.523,3.591,2.772,4.703
						c1.249,1.113,2.91,1.669,5.539,1.668c2.629,0,5.097-0.672,6.543-1.835c1.446-1.163,2.423-2.769,2.423-4.994l-0.004-23.064
						l12.858-0.002l0.004,23.368c0.066,1.619,0.599,3.392,2.177,4.757c1.578,1.365,3.503,1.767,6.067,1.766
						c2.563,0,4.291-0.633,5.868-1.898c1.577-1.265,1.894-2.757,1.894-4.477l-0.004-23.52l13.112-0.002l0.106,38.931
						C112.753,93.333,64.873,93.334,59.421,93.335z"/>
				</g>
				<path fill="none" stroke="#FFFFFF" stroke-width="0.9921" stroke-miterlimit="3.8637" d="M93.512,12.322
					c6.315-0.023,12,1.166,14.892,3.948c2.893,2.782,4.339,6.499,4.34,11.152l0.004,23.823l-13.211,0.002l-0.004-23.52
					c0-2.023-0.625-3.591-1.874-4.704c-1.249-1.113-3.188-1.669-5.817-1.668c-2.629,0-4.666,0.582-6.112,1.746
					c-1.446,1.163-2.168,2.858-2.168,5.083l0.004,23.064l-12.914,0.002l-0.004-23.368c-0.066-1.619-0.889-3.111-2.466-4.476
					c-1.578-1.365-3.648-2.048-6.211-2.048c-2.563,0-4.634,0.633-6.211,1.898c-1.577,1.265-2.366,2.757-2.365,4.477l0.004,23.519
					l-13.112,0.002L40.18,12.322C40.18,12.322,80.36,12.37,93.512,12.322z M59.421,93.335c-6.315,0.001-12-1.167-14.892-3.949
					c-2.893-2.781-4.248-6.499-4.249-11.152l-0.004-23.823l13.12-0.002l0.004,23.519c0.299,2.433,1.523,3.591,2.772,4.703
					c1.249,1.113,2.91,1.669,5.539,1.668c2.629,0,5.097-0.672,6.543-1.835c1.446-1.163,2.423-2.769,2.423-4.994l-0.004-23.064
					l12.858-0.002l0.004,23.368c0.066,1.619,0.599,3.392,2.177,4.757c1.578,1.365,3.503,1.767,6.067,1.766
					c2.563,0,4.291-0.633,5.868-1.898c1.577-1.265,1.894-2.757,1.894-4.477l-0.004-23.52l13.112-0.002l0.106,38.931L59.421,93.335z"
					/>
			</g>
			<g>
				<path fill-rule="evenodd" clip-rule="evenodd" fill="#FFFFFF" d="M61.36,45.994l-1.195,32.713c-0.096,1.919,4.455,2.014,4.264,0
					l-1.29-32.713c-0.067-2.409,2.464-2.73,2.761-5.479c0.5-2.914-0.556-14.855-0.95-14.855c-0.423-0.002,0.218,13.088-1.1,13.662
					c-1.26-0.557-1.121-13.847-1.541-13.847c-0.402,0-0.216,13.357-1.705,13.847c-1.255-0.54-0.711-13.665-1.123-13.662
					c-0.357,0-1.392,11.781-0.963,14.855C58.741,43.178,61.449,43.563,61.36,45.994z"/>
				
					<path fill-rule="evenodd" clip-rule="evenodd" fill="none" stroke="#FFFFFF" stroke-width="0.4604" stroke-linejoin="round" stroke-miterlimit="3.8637" d="
					M61.36,45.994l-1.195,32.713c-0.096,1.919,4.455,2.014,4.264,0l-1.29-32.713c-0.067-2.409,2.464-2.73,2.761-5.479
					c0.5-2.914-0.556-14.855-0.95-14.855c-0.423-0.002,0.218,13.088-1.1,13.662c-1.26-0.557-1.121-13.847-1.541-13.847
					c-0.402,0-0.216,13.357-1.705,13.847c-1.255-0.54-0.711-13.665-1.123-13.662c-0.357,0-1.392,11.781-0.963,14.855
					C58.741,43.178,61.449,43.563,61.36,45.994z"/>
			</g>
			<g>
				<path fill-rule="evenodd" clip-rule="evenodd" fill="#FFFFFF" d="M89.485,78.773c-0.117,1.727,4.695,1.775,4.502,0
					c-1.021-19.145-0.76-27.644,0-50.583c-0.128-3.502-2.186-3.439-3.141-0.121c-1.718,5.784-4.238,15.495,0.321,25.632
					C91.132,61.66,90.523,67.431,89.485,78.773z"/>
				
					<path fill-rule="evenodd" clip-rule="evenodd" fill="none" stroke="#FFFFFF" stroke-width="0.4604" stroke-linejoin="round" stroke-miterlimit="3.8637" d="
					M89.485,78.773c-0.117,1.727,4.695,1.775,4.502,0c-1.021-19.145-0.76-27.644,0-50.583c-0.128-3.502-2.186-3.439-3.141-0.121
					c-1.718,5.784-4.238,15.495,0.321,25.632C91.132,61.66,90.523,67.431,89.485,78.773z"/>
			</g>
		</g>
		<g>
			<g>
				<g>
					<path fill-rule="evenodd" clip-rule="evenodd" fill="#0067B4" d="M19.504,122.533c2.271,0,4.315,0.492,5.355,1.662
						c1.04,1.17,1.56,2.733,1.56,4.69v10.018h-4.75v-9.89c0-0.851-0.224-1.51-0.674-1.979c-0.449-0.467-1.146-0.701-2.091-0.701
						c-0.946,0-1.678,0.244-2.198,0.734c-0.52,0.489-0.78,1.202-0.78,2.137v9.699h-4.644v-9.826
						c-0.023-0.681-0.318-1.309-0.886-1.883c-0.567-0.574-1.312-0.861-2.233-0.861c-0.921,0-1.666,0.266-2.233,0.798
						c-0.568,0.531-0.851,1.159-0.851,1.882v9.89H0.364l-0.036-16.371C0.328,122.531,17.544,122.533,19.504,122.533z"/>
					<path fill-rule="evenodd" clip-rule="evenodd" fill="#0067B4" stroke="#0067B4" stroke-miterlimit="10" d="M52.832,122.696
						c2.523,0,4.585,0.217,6.134,1.372c1.599,1.439,1.772,2.797,1.772,5.136v9.699h-4.644v-9.826
						c-0.023-0.681-0.319-1.309-0.886-1.883c-0.567-0.574-1.312-0.861-2.233-0.861c-0.922,0-1.667,0.266-2.234,0.798
						c-0.567,0.531-0.851,1.159-0.851,1.882v9.89h-4.714l-0.036-16.207H52.832z"/>
					<path fill-rule="evenodd" clip-rule="evenodd" fill="#0067B4" d="M62.238,122.696h4.679v8.997c0,1.063,0.213,1.904,0.638,2.521
						c0.425,0.617,1.17,0.914,2.234,0.893c1.063-0.021,1.855-0.34,2.375-0.957c0.519-0.616,0.78-1.542,0.78-2.776v-8.678h4.679
						v16.207h-4.679c-5.337,0-6.952,0.098-8.685-1.148c-1.771-1.274-2.02-2.914-2.02-5.807V122.696z"/>
					<path fill-rule="evenodd" clip-rule="evenodd" fill="#0067B4" d="M136.974,138.903v-22.534l4.679,0.009v7.211
						c1.277-0.936,2.753-1.383,4.431-1.34c1.678,0.043,3.191,0.766,4.538,2.17c1.347,1.403,1.985,3.606,1.914,6.605
						c-0.071,2.998-0.862,5.081-2.305,6.317c-2.025,1.734-3.69,1.563-8.579,1.563C141.654,138.905,136.974,138.903,136.974,138.903z
						 M141.629,135.083c4.226,0,4.385-0.143,5.271-1.062c0.615-0.702,0.922-1.786,0.922-3.254c0-1.468-0.26-2.563-0.781-3.287
						c-0.519-0.723-1.299-1.117-2.34-1.181c-1.039-0.063-2.056,0.394-3.049,1.373L141.629,135.083z"/>
					<path fill-rule="evenodd" clip-rule="evenodd" fill="#0067B4" d="M99.047,139.148c-2.42,0-3.801-0.531-4.905-1.681
						c-1.089-1.133-1.56-2.733-1.56-4.69v-10.019h4.75v9.891c0,0.851,0.225,1.511,0.674,1.978c0.449,0.469,1.147,0.702,2.091,0.702
						c0.946,0,1.678-0.244,2.198-0.734c0.52-0.489,0.78-1.202,0.78-2.138v-9.699h4.643v9.828c0.024,0.68,0.319,1.307,0.887,1.882
						c0.567,0.574,1.312,0.861,2.233,0.861c0.921,0,1.666-0.265,2.233-0.797c0.568-0.532,0.851-1.159,0.851-1.883v-9.891h4.715
						l0.036,16.389C118.673,139.147,101.116,139.148,99.047,139.148z"/>
					<path fill="#0067B4" stroke="#0067B4" stroke-width="0.822" stroke-linejoin="round" stroke-miterlimit="3.8637" d="
						M19.504,122.533c2.271,0,4.315,0.492,5.355,1.662c1.04,1.17,1.56,2.733,1.56,4.69v10.018h-4.75v-9.89
						c0-0.851-0.224-1.51-0.674-1.979c-0.449-0.467-1.146-0.701-2.091-0.701c-0.946,0-1.678,0.244-2.198,0.734
						c-0.52,0.489-0.78,1.202-0.78,2.137v9.699h-4.644v-9.826c-0.023-0.681-0.318-1.309-0.886-1.883
						c-0.567-0.574-1.312-0.861-2.233-0.861c-0.921,0-1.666,0.266-2.233,0.798c-0.568,0.531-0.851,1.159-0.851,1.882v9.89H0.364
						l-0.036-16.371L19.504,122.533z M52.832,122.696c2.523,0,4.585,0.217,6.134,1.372c1.599,1.439,1.772,2.797,1.772,5.136v9.699
						h-4.644v-9.826c-0.023-0.681-0.319-1.309-0.886-1.883c-0.567-0.574-1.312-0.861-2.233-0.861c-0.922,0-1.667,0.266-2.234,0.798
						c-0.567,0.531-0.851,1.159-0.851,1.882v9.89h-4.714l-0.036-16.207H52.832z M62.238,122.696h4.679v8.997
						c0,1.063,0.213,1.904,0.638,2.521c0.425,0.617,1.17,0.914,2.234,0.893c1.063-0.021,1.855-0.34,2.375-0.957
						c0.519-0.616,0.78-1.542,0.78-2.776v-8.678h4.679v16.207h-4.679c-5.337,0-6.952,0.098-8.685-1.148
						c-1.771-1.274-2.02-2.914-2.02-5.807V122.696z M136.974,138.903v-22.534l4.679,0.009v7.211c1.277-0.936,2.753-1.383,4.431-1.34
						c1.678,0.043,3.191,0.766,4.538,2.17c1.347,1.403,1.985,3.606,1.914,6.605c-0.071,2.998-0.862,5.081-2.305,6.317
						c-2.025,1.734-3.69,1.563-8.579,1.563H136.974z M141.629,135.083c4.226,0,4.385-0.143,5.271-1.062
						c0.615-0.702,0.922-1.786,0.922-3.254c0-1.468-0.26-2.563-0.781-3.287c-0.519-0.723-1.299-1.117-2.34-1.181
						c-1.039-0.063-2.056,0.394-3.049,1.373L141.629,135.083z M99.047,139.148c-2.42,0-3.801-0.531-4.905-1.681
						c-1.089-1.133-1.56-2.733-1.56-4.69v-10.019h4.75v9.891c0,0.851,0.225,1.511,0.674,1.978c0.449,0.469,1.147,0.702,2.091,0.702
						c0.946,0,1.678-0.244,2.198-0.734c0.52-0.489,0.78-1.202,0.78-2.138v-9.699h4.643v9.828c0.024,0.68,0.319,1.307,0.887,1.882
						c0.567,0.574,1.312,0.861,2.233,0.861c0.921,0,1.666-0.265,2.233-0.797c0.568-0.532,0.851-1.159,0.851-1.883v-9.891h4.715
						l0.036,16.389L99.047,139.148z"/>
				</g>
				
					<rect x="82.602" y="130.094" fill-rule="evenodd" clip-rule="evenodd" fill="#0067B4" stroke="#0067B4" stroke-width="2.824" stroke-linejoin="round" stroke-miterlimit="3.8637" width="5.027" height="3.17"/>
			</g>
			<path fill-rule="evenodd" clip-rule="evenodd" fill="#0067B4" d="M134.983,136.542c-2.08,1.787-4.383,2.648-6.912,2.584
				c-2.528-0.063-4.514-0.851-5.955-2.361c-1.442-1.51-2.15-3.563-2.127-6.158c0.024-2.595,0.804-4.637,2.34-6.125
				c1.536-1.489,3.391-2.234,5.566-2.234c2.174,0,4.052,0.787,5.636,2.361c1.583,1.574,2.257,4.042,2.02,7.403h-10.847
				c0.048,0.553,0.319,1.169,0.816,1.85c0.496,0.68,1.418,1.063,2.765,1.148c1.347,0.085,2.04-0.339,3.297-1.212
				C133.009,133.006,136.203,135.408,134.983,136.542z"/>
			<path fill-rule="evenodd" clip-rule="evenodd" fill="#F9F9F9" d="M125.026,129.214h6.098c-0.142-0.766-0.438-1.415-0.886-1.946
				c-0.449-0.532-1.17-0.809-2.163-0.831c-0.992-0.021-1.714,0.245-2.162,0.798C125.464,127.788,125.168,128.448,125.026,129.214z"
				/>
			<path fill-rule="evenodd" clip-rule="evenodd" fill="#0067B4" d="M43.061,136.542c-2.08,1.787-4.383,2.648-6.912,2.584
				c-2.528-0.063-4.514-0.851-5.955-2.361c-1.442-1.51-2.15-3.563-2.127-6.158c0.024-2.595,0.804-4.637,2.34-6.125
				c1.536-1.489,3.391-2.234,5.566-2.234c2.174,0,4.052,0.787,5.636,2.361c1.583,1.574,2.257,4.042,2.021,7.403H32.781
				c0.047,0.553,0.319,1.169,0.815,1.85c0.496,0.68,1.418,1.063,2.765,1.148c1.347,0.085,2.04-0.339,3.297-1.212
				C41.087,133.006,44.282,135.408,43.061,136.542z"/>
			<path fill-rule="evenodd" clip-rule="evenodd" fill="#FCFCFC" d="M32.959,129.214h6.098c-0.143-0.766-0.438-1.415-0.886-1.946
				c-0.449-0.532-1.17-0.809-2.163-0.831c-0.992-0.021-1.714,0.245-2.162,0.798C33.396,127.788,33.101,128.448,32.959,129.214z"/>
			<path fill-rule="evenodd" clip-rule="evenodd" fill="#0067B4" d="M5.442,151.979l-1.312-2.01
				c-0.096-0.143-0.192-0.287-0.287-0.43c-0.096-0.144-0.199-0.291-0.308-0.441c-0.212-0.288-0.41-0.489-0.595-0.605
				c0.342-0.11,0.649-0.309,0.922-0.595c0.267-0.273,0.4-0.635,0.4-1.087c0-0.588-0.205-1.042-0.615-1.363
				c-0.41-0.308-0.987-0.461-1.733-0.461H0.152v6.992h0.543v-3.353h1.067c0.479,0,0.84,0.14,1.086,0.42
				c0.123,0.137,0.244,0.291,0.364,0.461c0.119,0.172,0.24,0.356,0.364,0.554l1.23,1.918H5.442z M3.678,146.802
				c0,0.444-0.161,0.786-0.482,1.025c-0.314,0.233-0.762,0.349-1.343,0.349H0.695v-2.737h1.21c0.547,0,0.981,0.119,1.302,0.359
				C3.52,146.029,3.678,146.364,3.678,146.802z"/>
			<polygon fill-rule="evenodd" clip-rule="evenodd" fill="#0067B4" points="10.154,151.979 10.154,151.527 6.802,151.527 
				6.802,148.688 9.99,148.678 9.99,148.237 6.802,148.237 6.802,145.439 10.083,145.439 10.083,144.987 6.259,144.987 
				6.259,151.979 			"/>
			<path fill-rule="evenodd" clip-rule="evenodd" fill="#0067B4" d="M14.434,150.205c0-0.533-0.13-0.946-0.389-1.24
				c-0.254-0.28-0.736-0.55-1.446-0.81c-0.533-0.198-0.915-0.397-1.148-0.595c-0.226-0.191-0.339-0.478-0.339-0.861
				c0-0.355,0.143-0.663,0.431-0.922c0.273-0.254,0.618-0.38,1.035-0.38c0.349,0,0.656,0.065,0.923,0.195
				c0.137,0.068,0.261,0.13,0.374,0.185c0.113,0.054,0.206,0.105,0.282,0.153l-0.011-0.595c-0.034-0.027-0.098-0.063-0.194-0.108
				c-0.096-0.045-0.223-0.098-0.379-0.159c-0.314-0.116-0.666-0.174-1.056-0.174c-0.534,0-1.001,0.182-1.405,0.544
				c-0.389,0.362-0.585,0.789-0.585,1.281c0,0.506,0.133,0.892,0.4,1.159c0.259,0.267,0.676,0.499,1.251,0.697
				c0.56,0.191,0.984,0.403,1.271,0.635c0.273,0.225,0.41,0.547,0.41,0.964c0,0.396-0.143,0.727-0.43,0.994
				c-0.287,0.267-0.643,0.4-1.066,0.4c-0.266,0-0.536-0.062-0.81-0.185c-0.137-0.062-0.283-0.138-0.441-0.23
				c-0.157-0.093-0.321-0.203-0.492-0.334v0.635c0.075,0.055,0.173,0.115,0.293,0.18c0.119,0.065,0.264,0.135,0.435,0.21
				c0.328,0.15,0.697,0.225,1.107,0.225c0.54,0,1.005-0.184,1.394-0.554C14.239,151.149,14.434,150.711,14.434,150.205z"/>
			<polygon fill-rule="evenodd" clip-rule="evenodd" fill="#0067B4" points="20.476,145.439 20.476,144.987 14.684,144.987 
				14.684,145.439 17.309,145.439 17.309,151.979 17.852,151.979 17.852,145.439 			"/>
			<path fill-rule="evenodd" clip-rule="evenodd" fill="#0067B4" d="M25.774,151.979l-3.219-7.043h-0.298l-3.229,7.043h0.564
				l1.106-2.42h3.415l1.106,2.42H25.774z M23.909,149.108h-3.004l1.498-3.291L23.909,149.108z"/>
			<path fill-rule="evenodd" clip-rule="evenodd" fill="#0067B4" d="M31.776,148.944v-3.957h-0.544v3.916
				c0,0.813-0.215,1.459-0.645,1.938c-0.424,0.485-0.998,0.728-1.723,0.728c-0.73,0-1.315-0.236-1.753-0.707
				c-0.43-0.472-0.645-1.107-0.645-1.908v-3.967h-0.544v4.008c0,0.902,0.273,1.643,0.821,2.225c0.546,0.567,1.25,0.851,2.111,0.851
				c0.861,0,1.565-0.294,2.112-0.881C31.506,150.595,31.776,149.846,31.776,148.944z"/>
			<path fill-rule="evenodd" clip-rule="evenodd" fill="#0067B4" d="M38.223,151.979l-1.312-2.01
				c-0.095-0.143-0.191-0.287-0.287-0.43c-0.095-0.144-0.198-0.291-0.308-0.441c-0.212-0.288-0.409-0.489-0.595-0.605
				c0.342-0.11,0.65-0.309,0.923-0.595c0.266-0.273,0.399-0.635,0.399-1.087c0-0.588-0.205-1.042-0.615-1.363
				c-0.41-0.308-0.988-0.461-1.733-0.461h-1.764v6.992h0.544v-3.353h1.066c0.479,0,0.841,0.14,1.087,0.42
				c0.123,0.137,0.244,0.291,0.364,0.461c0.12,0.172,0.241,0.356,0.363,0.554l1.231,1.918H38.223z M36.46,146.802
				c0,0.444-0.161,0.786-0.482,1.025c-0.314,0.233-0.762,0.349-1.343,0.349h-1.158v-2.737h1.209c0.547,0,0.981,0.119,1.302,0.359
				C36.303,146.029,36.46,146.364,36.46,146.802z"/>
			<path fill-rule="evenodd" clip-rule="evenodd" fill="#0067B4" d="M45.396,151.979l-3.219-7.043H41.88l-3.229,7.043h0.564
				l1.107-2.42h3.414l1.106,2.42H45.396z M43.531,149.108h-3.004l1.497-3.291L43.531,149.108z"/>
			<path fill-rule="evenodd" clip-rule="evenodd" fill="#0067B4" d="M52.567,151.979v-6.992h-0.543v6.13
				c-0.444-0.533-0.885-1.053-1.323-1.558c-0.438-0.505-0.881-1.008-1.332-1.507c-0.451-0.499-0.896-1.001-1.333-1.507
				c-0.437-0.506-0.878-1.026-1.323-1.558h-0.461v6.992h0.544v-6.11l5.31,6.11H52.567z"/>
			<polygon fill-rule="evenodd" clip-rule="evenodd" fill="#0067B4" points="59.184,145.439 59.184,144.987 53.392,144.987 
				53.392,145.439 56.016,145.439 56.016,151.979 56.56,151.979 56.56,145.439 			"/>
			<polygon fill-rule="evenodd" clip-rule="evenodd" fill="#0067B4" points="69.287,151.979 69.287,144.987 68.743,144.987 
				66.088,148.237 63.423,144.987 62.879,144.987 62.879,151.979 63.423,151.979 63.423,145.756 66.088,149.047 68.743,145.756 
				68.743,151.979 			"/>
			<polygon fill-rule="evenodd" clip-rule="evenodd" fill="#0067B4" points="74.38,151.979 74.38,151.527 71.028,151.527 
				71.028,148.688 74.216,148.678 74.216,148.237 71.028,148.237 71.028,145.439 74.309,145.439 74.309,144.987 70.485,144.987 
				70.485,151.979 			"/>
			<path fill-rule="evenodd" clip-rule="evenodd" fill="#0067B4" d="M81.397,151.979v-6.992h-0.544v6.13
				c-0.444-0.533-0.885-1.053-1.322-1.558c-0.437-0.505-0.881-1.008-1.333-1.507c-0.451-0.499-0.896-1.001-1.332-1.507
				c-0.438-0.506-0.878-1.026-1.322-1.558h-0.462v6.992h0.544v-6.11l5.311,6.11H81.397z"/>
			<path fill-rule="evenodd" clip-rule="evenodd" fill="#0067B4" d="M88.394,148.944v-3.957H87.85v3.916
				c0,0.813-0.215,1.459-0.645,1.938c-0.424,0.485-0.998,0.728-1.723,0.728c-0.731,0-1.316-0.236-1.753-0.707
				c-0.431-0.472-0.646-1.107-0.646-1.908v-3.967H82.54v4.008c0,0.902,0.273,1.643,0.82,2.225c0.547,0.567,1.251,0.851,2.112,0.851
				s1.565-0.294,2.112-0.881C88.124,150.595,88.394,149.846,88.394,148.944z"/>
			<polygon fill-rule="evenodd" clip-rule="evenodd" fill="#0067B4" points="97.729,145.439 97.729,144.987 91.937,144.987 
				91.937,145.439 94.561,145.439 94.561,151.979 95.105,151.979 95.105,145.439 			"/>
			<path fill-rule="evenodd" clip-rule="evenodd" fill="#0067B4" d="M103.877,151.979l-1.312-2.01
				c-0.096-0.143-0.191-0.287-0.287-0.43c-0.096-0.144-0.198-0.291-0.308-0.441c-0.212-0.288-0.41-0.489-0.595-0.605
				c0.342-0.11,0.65-0.309,0.922-0.595c0.267-0.273,0.4-0.635,0.4-1.087c0-0.588-0.205-1.042-0.615-1.363
				c-0.41-0.308-0.987-0.461-1.733-0.461h-1.763v6.992h0.544v-3.353h1.066c0.479,0,0.841,0.14,1.087,0.42
				c0.123,0.137,0.244,0.291,0.364,0.461c0.119,0.172,0.241,0.356,0.364,0.554l1.231,1.918H103.877z M102.114,146.802
				c0,0.444-0.161,0.786-0.482,1.025c-0.314,0.233-0.761,0.349-1.342,0.349h-1.158v-2.737h1.209c0.547,0,0.981,0.119,1.302,0.359
				C101.957,146.029,102.114,146.364,102.114,146.802z"/>
			<path fill-rule="evenodd" clip-rule="evenodd" fill="#0067B4" d="M111.051,151.979l-3.219-7.043h-0.297l-3.23,7.043h0.564
				l1.107-2.42h3.414l1.107,2.42H111.051z M109.185,149.108h-3.003l1.497-3.291L109.185,149.108z"/>
			<path fill-rule="evenodd" clip-rule="evenodd" fill="#0067B4" d="M118.221,151.979v-6.992h-0.544v6.13
				c-0.444-0.533-0.885-1.053-1.323-1.558c-0.437-0.505-0.881-1.008-1.332-1.507c-0.451-0.499-0.895-1.001-1.333-1.507
				c-0.437-0.506-0.878-1.026-1.322-1.558h-0.461v6.992h0.543v-6.11l5.311,6.11H118.221z"/>
			<path fill-rule="evenodd" clip-rule="evenodd" fill="#0067B4" d="M123.086,150.205c0-0.533-0.13-0.946-0.39-1.24
				c-0.253-0.28-0.734-0.55-1.445-0.81c-0.533-0.198-0.915-0.397-1.148-0.595c-0.225-0.191-0.339-0.478-0.339-0.861
				c0-0.355,0.143-0.663,0.431-0.922c0.273-0.254,0.618-0.38,1.035-0.38c0.349,0,0.656,0.065,0.923,0.195
				c0.137,0.068,0.261,0.13,0.374,0.185c0.113,0.054,0.207,0.105,0.282,0.153l-0.01-0.595c-0.035-0.027-0.099-0.063-0.195-0.108
				c-0.096-0.045-0.222-0.098-0.379-0.159c-0.314-0.116-0.666-0.174-1.056-0.174c-0.533,0-1.001,0.182-1.405,0.544
				c-0.389,0.362-0.584,0.789-0.584,1.281c0,0.506,0.133,0.892,0.399,1.159c0.259,0.267,0.676,0.499,1.251,0.697
				c0.56,0.191,0.984,0.403,1.272,0.635c0.273,0.225,0.409,0.547,0.409,0.964c0,0.396-0.143,0.727-0.43,0.994s-0.643,0.4-1.066,0.4
				c-0.266,0-0.536-0.062-0.81-0.185c-0.137-0.062-0.283-0.138-0.441-0.23c-0.157-0.093-0.321-0.203-0.492-0.334v0.635
				c0.075,0.055,0.173,0.115,0.292,0.18c0.12,0.065,0.265,0.135,0.436,0.21c0.328,0.15,0.697,0.225,1.107,0.225
				c0.539,0,1.005-0.184,1.394-0.554C122.89,151.149,123.086,150.711,123.086,150.205z"/>
			<polygon fill-rule="evenodd" clip-rule="evenodd" fill="#0067B4" points="128.041,151.979 128.041,151.527 124.586,151.527 
				124.586,144.987 124.043,144.987 124.043,151.979 			"/>
			<path fill-rule="evenodd" clip-rule="evenodd" fill="#0067B4" d="M134.821,151.979l-3.219-7.043h-0.298l-3.229,7.043h0.564
				l1.107-2.42h3.414l1.107,2.42H134.821z M132.956,149.108h-3.004l1.498-3.291L132.956,149.108z"/>
			<polygon fill-rule="evenodd" clip-rule="evenodd" fill="#0067B4" points="139.173,145.439 139.173,144.987 133.38,144.987 
				133.38,145.439 136.005,145.439 136.005,151.979 136.548,151.979 136.548,145.439 			"/>
			<path fill-rule="evenodd" clip-rule="evenodd" fill="#0067B4" d="M146.121,148.483c0-1.018-0.356-1.872-1.067-2.562
				c-0.718-0.684-1.596-1.026-2.635-1.026c-1.052,0-1.934,0.345-2.645,1.036c-0.704,0.684-1.056,1.534-1.056,2.552
				c0,1.018,0.355,1.873,1.066,2.562c0.704,0.684,1.582,1.026,2.634,1.026c1.046,0,1.924-0.345,2.635-1.036
				C145.765,150.345,146.121,149.494,146.121,148.483z M145.536,148.483c0,0.848-0.304,1.575-0.913,2.184
				c-0.601,0.601-1.336,0.902-2.204,0.902c-0.875,0-1.613-0.301-2.214-0.902c-0.602-0.602-0.902-1.329-0.902-2.184
				c0-0.847,0.304-1.575,0.912-2.184c0.601-0.601,1.336-0.902,2.204-0.902c0.868,0,1.603,0.301,2.204,0.902
				C145.232,146.908,145.536,147.636,145.536,148.483z"/>
			<path fill-rule="evenodd" clip-rule="evenodd" fill="#0067B4" d="M152.466,151.979l-1.312-2.01
				c-0.095-0.143-0.191-0.287-0.287-0.43c-0.096-0.144-0.199-0.291-0.308-0.441c-0.212-0.288-0.409-0.489-0.595-0.605
				c0.342-0.11,0.65-0.309,0.923-0.595c0.266-0.273,0.399-0.635,0.399-1.087c0-0.588-0.205-1.042-0.615-1.363
				c-0.409-0.308-0.987-0.461-1.732-0.461h-1.764v6.992h0.544v-3.353h1.066c0.479,0,0.84,0.14,1.087,0.42
				c0.123,0.137,0.244,0.291,0.364,0.461c0.12,0.172,0.241,0.356,0.364,0.554l1.231,1.918H152.466z M150.703,146.802
				c0,0.444-0.16,0.786-0.481,1.025c-0.315,0.233-0.762,0.349-1.343,0.349h-1.158v-2.737h1.209c0.547,0,0.981,0.119,1.302,0.359
				C150.546,146.029,150.703,146.364,150.703,146.802z"/>
		</g>
	</g>
</g>
</svg>
