<?xml version="1.0" encoding="utf-8"?>
<!-- Generator: Adobe Illustrator 17.1.0, SVG Export Plug-In . SVG Version: 6.00 Build 0)  -->
<!DOCTYPE svg PUBLIC "-//W3C//DTD SVG 1.1//EN" "http://www.w3.org/Graphics/SVG/1.1/DTD/svg11.dtd">
<svg version="1.1" id="Capa_1" xmlns="http://www.w3.org/2000/svg" xmlns:xlink="http://www.w3.org/1999/xlink" x="0px" y="0px"
	 viewBox="0 0 145.469 34.447" enable-background="new 0 0 145.469 34.447" xml:space="preserve">
<g>
	<g>
		<g>
			<path fill-rule="evenodd" clip-rule="evenodd" fill="#0067B4" d="M18.638,6.394c2.156,0,4.098,0.467,5.086,1.578
				c0.988,1.111,1.482,2.596,1.482,4.455v9.514h-4.512v-9.393c0-0.809-0.213-1.434-0.64-1.879c-0.427-0.444-1.089-0.666-1.986-0.666
				c-0.898,0-1.594,0.232-2.088,0.697c-0.494,0.465-0.74,1.141-0.74,2.03v9.212h-4.411v-9.332c-0.022-0.647-0.302-1.243-0.842-1.788
				c-0.539-0.546-1.246-0.818-2.121-0.818c-0.875,0-1.582,0.253-2.121,0.758c-0.539,0.504-0.809,1.101-0.809,1.787v9.393H0.459
				L0.425,6.392C0.425,6.392,16.776,6.394,18.638,6.394z"/>
			<path fill-rule="evenodd" clip-rule="evenodd" fill="#0067B4" stroke="#0067B4" stroke-miterlimit="10" d="M50.291,6.548
				c2.396,0,4.355,0.206,5.826,1.303c1.519,1.367,1.683,2.656,1.683,4.878v9.212h-4.41v-9.332c-0.022-0.647-0.303-1.243-0.842-1.788
				c-0.539-0.546-1.246-0.818-2.121-0.818c-0.876,0-1.583,0.253-2.122,0.758c-0.538,0.504-0.808,1.101-0.808,1.787v9.393H43.02
				L42.986,6.548H50.291z"/>
			<path fill-rule="evenodd" clip-rule="evenodd" fill="#0067B4" d="M59.225,6.548h4.444v8.545c0,1.01,0.202,1.808,0.606,2.394
				c0.404,0.586,1.111,0.868,2.122,0.848c1.01-0.02,1.762-0.323,2.255-0.909c0.493-0.585,0.74-1.464,0.74-2.636V6.548h4.444v15.393
				h-4.444c-5.069,0-6.602,0.093-8.249-1.09c-1.682-1.21-1.919-2.768-1.919-5.515V6.548z"/>
			<path fill-rule="evenodd" clip-rule="evenodd" fill="#0067B4" d="M130.206,21.941V0.539l4.444,0.009v6.849
				c1.213-0.889,2.615-1.313,4.208-1.273c1.594,0.04,3.031,0.728,4.31,2.061c1.28,1.333,1.886,3.424,1.818,6.273
				c-0.067,2.848-0.819,4.826-2.189,6c-1.923,1.647-3.505,1.484-8.147,1.484C134.651,21.943,130.206,21.941,130.206,21.941z
				 M134.627,18.313c4.014,0,4.165-0.136,5.006-1.008c0.584-0.667,0.876-1.696,0.876-3.09c0-1.395-0.247-2.434-0.741-3.122
				c-0.493-0.687-1.234-1.06-2.222-1.121c-0.987-0.06-1.953,0.374-2.895,1.304L134.627,18.313z"/>
			<path fill-rule="evenodd" clip-rule="evenodd" fill="#0067B4" d="M94.185,22.174c-2.298,0-3.61-0.504-4.659-1.597
				c-1.034-1.076-1.482-2.596-1.482-4.455V6.607h4.512v9.394c0,0.808,0.214,1.435,0.64,1.878c0.426,0.445,1.089,0.667,1.986,0.667
				c0.898,0,1.593-0.232,2.088-0.697c0.494-0.464,0.741-1.141,0.741-2.031V6.607h4.41v9.334c0.023,0.646,0.303,1.242,0.843,1.787
				c0.538,0.546,1.246,0.818,2.121,0.818s1.582-0.252,2.121-0.757c0.539-0.505,0.809-1.101,0.809-1.788V6.607h4.478l0.034,15.566
				C112.825,22.173,96.149,22.174,94.185,22.174z"/>
			<path fill="#0067B4" stroke="#0067B4" stroke-width="0.822" stroke-linejoin="round" stroke-miterlimit="3.8637" d="
				M18.638,6.394c2.156,0,4.098,0.467,5.086,1.578c0.988,1.111,1.482,2.596,1.482,4.455v9.514h-4.512v-9.393
				c0-0.809-0.213-1.434-0.64-1.879c-0.427-0.444-1.089-0.666-1.986-0.666c-0.898,0-1.594,0.232-2.088,0.697
				c-0.494,0.465-0.74,1.141-0.74,2.03v9.212h-4.411v-9.332c-0.022-0.647-0.302-1.243-0.842-1.788
				c-0.539-0.546-1.246-0.818-2.121-0.818c-0.875,0-1.582,0.253-2.121,0.758c-0.539,0.504-0.809,1.101-0.809,1.787v9.393H0.459
				L0.425,6.392L18.638,6.394z M50.291,6.548c2.396,0,4.355,0.206,5.826,1.303c1.519,1.367,1.683,2.656,1.683,4.878v9.212h-4.41
				v-9.332c-0.022-0.647-0.303-1.243-0.842-1.788c-0.539-0.546-1.246-0.818-2.121-0.818c-0.876,0-1.583,0.253-2.122,0.758
				c-0.538,0.504-0.808,1.101-0.808,1.787v9.393H43.02L42.986,6.548H50.291z M59.225,6.548h4.444v8.545
				c0,1.01,0.202,1.808,0.606,2.394c0.404,0.586,1.111,0.868,2.122,0.848c1.01-0.02,1.762-0.323,2.255-0.909
				c0.493-0.585,0.74-1.464,0.74-2.636V6.548h4.444v15.393h-4.444c-5.069,0-6.602,0.093-8.249-1.09
				c-1.682-1.21-1.919-2.768-1.919-5.515V6.548z M130.206,21.941V0.539l4.444,0.009v6.849c1.213-0.889,2.615-1.313,4.208-1.273
				c1.594,0.04,3.031,0.728,4.31,2.061c1.28,1.333,1.886,3.424,1.818,6.273c-0.067,2.848-0.819,4.826-2.189,6
				c-1.923,1.647-3.505,1.484-8.147,1.484H130.206z M134.627,18.313c4.014,0,4.165-0.136,5.006-1.008
				c0.584-0.667,0.876-1.696,0.876-3.09c0-1.395-0.247-2.434-0.741-3.122c-0.493-0.687-1.234-1.06-2.222-1.121
				c-0.987-0.06-1.953,0.374-2.895,1.304L134.627,18.313z M94.185,22.174c-2.298,0-3.61-0.504-4.659-1.597
				c-1.034-1.076-1.482-2.596-1.482-4.455V6.607h4.512v9.394c0,0.808,0.214,1.435,0.64,1.878c0.426,0.445,1.089,0.667,1.986,0.667
				c0.898,0,1.593-0.232,2.088-0.697c0.494-0.464,0.741-1.141,0.741-2.031V6.607h4.41v9.334c0.023,0.646,0.303,1.242,0.843,1.787
				c0.538,0.546,1.246,0.818,2.121,0.818s1.582-0.252,2.121-0.757c0.539-0.505,0.809-1.101,0.809-1.788V6.607h4.478l0.034,15.566
				L94.185,22.174z"/>
		</g>
		
			<rect x="78.566" y="13.575" fill-rule="evenodd" clip-rule="evenodd" fill="#0067B4" stroke="#0067B4" stroke-width="2.824" stroke-linejoin="round" stroke-miterlimit="3.8637" width="4.775" height="3.011"/>
	</g>
	<path fill-rule="evenodd" clip-rule="evenodd" fill="#0067B4" d="M128.315,19.699c-1.975,1.697-4.163,2.515-6.565,2.454
		c-2.401-0.06-4.287-0.808-5.656-2.242c-1.369-1.434-2.042-3.384-2.02-5.848c0.023-2.465,0.763-4.404,2.222-5.818
		c1.459-1.414,3.221-2.122,5.286-2.122c2.065,0,3.849,0.748,5.353,2.242c1.504,1.495,2.144,3.839,1.919,7.031h-10.302
		c0.045,0.525,0.303,1.11,0.775,1.757c0.471,0.646,1.347,1.01,2.626,1.09c1.28,0.081,1.937-0.322,3.131-1.151
		C126.44,16.34,129.474,18.621,128.315,19.699z"/>
	<path fill-rule="evenodd" clip-rule="evenodd" fill="#F9F9F9" d="M118.858,12.739h5.791c-0.135-0.728-0.416-1.344-0.842-1.848
		c-0.427-0.505-1.111-0.768-2.054-0.789c-0.942-0.02-1.627,0.233-2.053,0.758C119.274,11.384,118.993,12.011,118.858,12.739z"/>
	<path fill-rule="evenodd" clip-rule="evenodd" fill="#0067B4" d="M41.011,19.699c-1.975,1.697-4.163,2.515-6.565,2.454
		c-2.401-0.06-4.287-0.808-5.656-2.242c-1.369-1.434-2.042-3.384-2.02-5.848c0.023-2.465,0.763-4.404,2.222-5.818
		c1.459-1.414,3.221-2.122,5.286-2.122c2.065,0,3.849,0.748,5.353,2.242c1.504,1.495,2.144,3.839,1.92,7.031H31.248
		c0.044,0.525,0.303,1.11,0.774,1.757c0.471,0.646,1.347,1.01,2.626,1.09c1.28,0.081,1.937-0.322,3.131-1.151
		C39.137,16.34,42.171,18.621,41.011,19.699z"/>
	<path fill-rule="evenodd" clip-rule="evenodd" fill="#FCFCFC" d="M31.417,12.739h5.791c-0.135-0.728-0.416-1.344-0.842-1.848
		c-0.427-0.505-1.111-0.768-2.054-0.789c-0.942-0.02-1.627,0.233-2.054,0.758C31.832,11.384,31.552,12.011,31.417,12.739z"/>
	<path fill-rule="evenodd" clip-rule="evenodd" fill="#0067B4" d="M5.282,34.36l-1.247-1.909c-0.091-0.136-0.182-0.272-0.272-0.409
		c-0.091-0.137-0.189-0.276-0.292-0.419c-0.201-0.273-0.39-0.464-0.565-0.574c0.325-0.105,0.616-0.293,0.876-0.565
		c0.253-0.26,0.38-0.604,0.38-1.032c0-0.558-0.195-0.99-0.584-1.295c-0.39-0.292-0.938-0.438-1.646-0.438H0.258v6.64h0.516v-3.184
		h1.013c0.455,0,0.798,0.133,1.032,0.399c0.116,0.13,0.232,0.276,0.346,0.438c0.113,0.163,0.228,0.338,0.345,0.526l1.168,1.821
		H5.282z M3.607,29.443c0,0.422-0.153,0.747-0.458,0.973c-0.299,0.221-0.724,0.331-1.276,0.331h-1.1v-2.599h1.149
		c0.52,0,0.931,0.113,1.236,0.341C3.458,28.709,3.607,29.027,3.607,29.443z"/>
	<polygon fill-rule="evenodd" clip-rule="evenodd" fill="#0067B4" points="9.758,34.36 9.758,33.931 6.575,33.931 6.575,31.234 
		9.602,31.225 9.602,30.806 6.575,30.806 6.575,28.148 9.69,28.148 9.69,27.72 6.058,27.72 6.058,34.36 	"/>
	<path fill-rule="evenodd" clip-rule="evenodd" fill="#0067B4" d="M13.823,32.675c0-0.506-0.124-0.898-0.37-1.178
		c-0.241-0.266-0.699-0.523-1.373-0.769c-0.506-0.188-0.869-0.377-1.09-0.565c-0.215-0.181-0.322-0.454-0.322-0.817
		c0-0.337,0.136-0.63,0.409-0.876c0.26-0.241,0.587-0.361,0.983-0.361c0.331,0,0.623,0.062,0.877,0.185
		c0.13,0.065,0.248,0.124,0.356,0.176c0.107,0.051,0.196,0.1,0.268,0.146l-0.01-0.565c-0.032-0.026-0.093-0.06-0.184-0.102
		c-0.091-0.043-0.211-0.093-0.36-0.151c-0.299-0.11-0.633-0.166-1.003-0.166c-0.507,0-0.951,0.173-1.334,0.516
		c-0.37,0.344-0.555,0.749-0.555,1.216c0,0.481,0.127,0.847,0.38,1.101c0.246,0.253,0.642,0.474,1.188,0.662
		c0.532,0.181,0.935,0.383,1.207,0.604c0.26,0.214,0.39,0.519,0.39,0.915c0,0.376-0.136,0.691-0.409,0.944
		c-0.272,0.253-0.611,0.38-1.013,0.38c-0.253,0-0.509-0.059-0.769-0.176c-0.13-0.059-0.269-0.131-0.419-0.219
		c-0.149-0.088-0.305-0.193-0.467-0.317v0.604c0.071,0.052,0.164,0.109,0.278,0.171c0.113,0.062,0.251,0.128,0.413,0.2
		c0.311,0.143,0.662,0.214,1.052,0.214c0.512,0,0.954-0.175,1.324-0.526C13.638,33.571,13.823,33.156,13.823,32.675z"/>
	<polygon fill-rule="evenodd" clip-rule="evenodd" fill="#0067B4" points="19.562,28.148 19.562,27.72 14.06,27.72 14.06,28.148 
		16.553,28.148 16.553,34.36 17.07,34.36 17.07,28.148 	"/>
	<path fill-rule="evenodd" clip-rule="evenodd" fill="#0067B4" d="M24.593,34.36l-3.057-6.69h-0.283l-3.067,6.69h0.536l1.051-2.298
		h3.243l1.051,2.298H24.593z M22.821,31.633h-2.853l1.422-3.126L22.821,31.633z"/>
	<path fill-rule="evenodd" clip-rule="evenodd" fill="#0067B4" d="M30.293,31.477V27.72h-0.516v3.719
		c0,0.772-0.204,1.386-0.613,1.841c-0.402,0.461-0.948,0.691-1.636,0.691c-0.694,0-1.249-0.224-1.665-0.672
		c-0.409-0.448-0.613-1.052-0.613-1.812V27.72h-0.516v3.807c0,0.857,0.26,1.561,0.779,2.113c0.519,0.539,1.187,0.808,2.005,0.808
		c0.818,0,1.486-0.279,2.006-0.837C30.037,33.045,30.293,32.334,30.293,31.477z"/>
	<path fill-rule="evenodd" clip-rule="evenodd" fill="#0067B4" d="M36.417,34.36l-1.247-1.909c-0.09-0.136-0.181-0.272-0.272-0.409
		c-0.09-0.137-0.188-0.276-0.292-0.419c-0.201-0.273-0.389-0.464-0.565-0.574c0.325-0.105,0.617-0.293,0.877-0.565
		c0.253-0.26,0.379-0.604,0.379-1.032c0-0.558-0.195-0.99-0.584-1.295c-0.39-0.292-0.938-0.438-1.646-0.438h-1.675v6.64h0.516
		v-3.184h1.012c0.455,0,0.798,0.133,1.033,0.399c0.116,0.13,0.232,0.276,0.345,0.438c0.114,0.163,0.229,0.338,0.345,0.526
		l1.169,1.821H36.417z M34.742,29.443c0,0.422-0.153,0.747-0.458,0.973c-0.299,0.221-0.724,0.331-1.276,0.331h-1.1v-2.599h1.148
		c0.519,0,0.932,0.113,1.237,0.341C34.593,28.709,34.742,29.027,34.742,29.443z"/>
	<path fill-rule="evenodd" clip-rule="evenodd" fill="#0067B4" d="M43.23,34.36l-3.057-6.69H39.89l-3.066,6.69h0.535l1.052-2.298
		h3.242l1.051,2.298H43.23z M41.458,31.633h-2.853l1.422-3.126L41.458,31.633z"/>
	<path fill-rule="evenodd" clip-rule="evenodd" fill="#0067B4" d="M50.04,34.36v-6.64h-0.516v5.822c-0.422-0.506-0.84-1-1.256-1.48
		c-0.416-0.48-0.837-0.957-1.265-1.431c-0.428-0.474-0.851-0.951-1.266-1.431c-0.415-0.481-0.834-0.974-1.256-1.48h-0.438v6.64
		h0.516v-5.803l5.043,5.803H50.04z"/>
	<polygon fill-rule="evenodd" clip-rule="evenodd" fill="#0067B4" points="56.324,28.148 56.324,27.72 50.824,27.72 50.824,28.148 
		53.316,28.148 53.316,34.36 53.832,34.36 53.832,28.148 	"/>
	<polygon fill-rule="evenodd" clip-rule="evenodd" fill="#0067B4" points="65.919,34.36 65.919,27.72 65.403,27.72 62.882,30.806 
		60.351,27.72 59.834,27.72 59.834,34.36 60.351,34.36 60.351,28.45 62.882,31.575 65.403,28.45 65.403,34.36 	"/>
	<polygon fill-rule="evenodd" clip-rule="evenodd" fill="#0067B4" points="70.757,34.36 70.757,33.931 67.573,33.931 67.573,31.234 
		70.601,31.225 70.601,30.806 67.573,30.806 67.573,28.148 70.689,28.148 70.689,27.72 67.058,27.72 67.058,34.36 	"/>
	<path fill-rule="evenodd" clip-rule="evenodd" fill="#0067B4" d="M77.422,34.36v-6.64h-0.516v5.822c-0.421-0.506-0.84-1-1.256-1.48
		c-0.415-0.48-0.837-0.957-1.266-1.431c-0.428-0.474-0.851-0.951-1.265-1.431c-0.416-0.481-0.834-0.974-1.256-1.48h-0.439v6.64
		h0.516v-5.803l5.044,5.803H77.422z"/>
	<path fill-rule="evenodd" clip-rule="evenodd" fill="#0067B4" d="M84.067,31.477V27.72H83.55v3.719
		c0,0.772-0.204,1.386-0.613,1.841c-0.403,0.461-0.948,0.691-1.636,0.691c-0.694,0-1.25-0.224-1.665-0.672
		c-0.409-0.448-0.614-1.052-0.614-1.812V27.72h-0.516v3.807c0,0.857,0.259,1.561,0.779,2.113c0.519,0.539,1.188,0.808,2.006,0.808
		c0.818,0,1.486-0.279,2.006-0.837C83.81,33.045,84.067,32.334,84.067,31.477z"/>
	<polygon fill-rule="evenodd" clip-rule="evenodd" fill="#0067B4" points="92.933,28.148 92.933,27.72 87.432,27.72 87.432,28.148 
		89.924,28.148 89.924,34.36 90.44,34.36 90.44,28.148 	"/>
	<path fill-rule="evenodd" clip-rule="evenodd" fill="#0067B4" d="M98.772,34.36l-1.247-1.909c-0.091-0.136-0.181-0.272-0.272-0.409
		c-0.091-0.137-0.188-0.276-0.292-0.419c-0.201-0.273-0.39-0.464-0.565-0.574c0.325-0.105,0.617-0.293,0.876-0.565
		c0.253-0.26,0.38-0.604,0.38-1.032c0-0.558-0.195-0.99-0.584-1.295c-0.39-0.292-0.938-0.438-1.646-0.438h-1.674v6.64h0.516v-3.184
		h1.012c0.455,0,0.798,0.133,1.032,0.399c0.117,0.13,0.232,0.276,0.346,0.438c0.113,0.163,0.229,0.338,0.345,0.526l1.169,1.821
		H98.772z M97.097,29.443c0,0.422-0.153,0.747-0.458,0.973c-0.299,0.221-0.723,0.331-1.275,0.331h-1.1v-2.599h1.148
		c0.519,0,0.931,0.113,1.237,0.341C96.948,28.709,97.097,29.027,97.097,29.443z"/>
	<path fill-rule="evenodd" clip-rule="evenodd" fill="#0067B4" d="M105.585,34.36l-3.058-6.69h-0.282l-3.067,6.69h0.535l1.052-2.298
		h3.242l1.052,2.298H105.585z M103.813,31.633h-2.853l1.421-3.126L103.813,31.633z"/>
	<path fill-rule="evenodd" clip-rule="evenodd" fill="#0067B4" d="M112.395,34.36v-6.64h-0.516v5.822
		c-0.421-0.506-0.84-1-1.256-1.48c-0.415-0.48-0.837-0.957-1.265-1.431c-0.428-0.474-0.85-0.951-1.266-1.431
		c-0.415-0.481-0.834-0.974-1.256-1.48h-0.438v6.64h0.516v-5.803l5.044,5.803H112.395z"/>
	<path fill-rule="evenodd" clip-rule="evenodd" fill="#0067B4" d="M117.015,32.675c0-0.506-0.124-0.898-0.371-1.178
		c-0.24-0.266-0.697-0.523-1.372-0.769c-0.506-0.188-0.869-0.377-1.09-0.565c-0.214-0.181-0.322-0.454-0.322-0.817
		c0-0.337,0.136-0.63,0.409-0.876c0.259-0.241,0.587-0.361,0.983-0.361c0.331,0,0.623,0.062,0.877,0.185
		c0.13,0.065,0.248,0.124,0.356,0.176c0.107,0.051,0.196,0.1,0.268,0.146l-0.009-0.565c-0.033-0.026-0.094-0.06-0.185-0.102
		c-0.091-0.043-0.211-0.093-0.36-0.151c-0.299-0.11-0.633-0.166-1.003-0.166c-0.506,0-0.951,0.173-1.334,0.516
		c-0.37,0.344-0.554,0.749-0.554,1.216c0,0.481,0.127,0.847,0.379,1.101c0.246,0.253,0.642,0.474,1.188,0.662
		c0.532,0.181,0.934,0.383,1.208,0.604c0.26,0.214,0.389,0.519,0.389,0.915c0,0.376-0.136,0.691-0.409,0.944
		c-0.272,0.253-0.611,0.38-1.013,0.38c-0.253,0-0.509-0.059-0.769-0.176c-0.13-0.059-0.269-0.131-0.419-0.219
		c-0.149-0.088-0.305-0.193-0.467-0.317v0.604c0.071,0.052,0.164,0.109,0.277,0.171c0.114,0.062,0.252,0.128,0.414,0.2
		c0.311,0.143,0.662,0.214,1.052,0.214c0.512,0,0.954-0.175,1.324-0.526C116.83,33.571,117.015,33.156,117.015,32.675z"/>
	<polygon fill-rule="evenodd" clip-rule="evenodd" fill="#0067B4" points="121.722,34.36 121.722,33.931 118.441,33.931 
		118.441,27.72 117.925,27.72 117.925,34.36 	"/>
	<path fill-rule="evenodd" clip-rule="evenodd" fill="#0067B4" d="M128.161,34.36l-3.057-6.69h-0.283l-3.067,6.69h0.536l1.051-2.298
		h3.242l1.052,2.298H128.161z M126.39,31.633h-2.853l1.422-3.126L126.39,31.633z"/>
	<polygon fill-rule="evenodd" clip-rule="evenodd" fill="#0067B4" points="132.294,28.148 132.294,27.72 126.793,27.72 
		126.793,28.148 129.286,28.148 129.286,34.36 129.801,34.36 129.801,28.148 	"/>
	<path fill-rule="evenodd" clip-rule="evenodd" fill="#0067B4" d="M138.894,31.039c0-0.967-0.338-1.778-1.013-2.434
		c-0.682-0.649-1.516-0.974-2.503-0.974c-0.999,0-1.836,0.328-2.512,0.984c-0.668,0.649-1.003,1.457-1.003,2.424
		c0,0.967,0.337,1.779,1.013,2.434c0.668,0.649,1.502,0.974,2.502,0.974c0.993,0,1.827-0.328,2.503-0.984
		C138.555,32.808,138.894,32,138.894,31.039z M138.338,31.039c0,0.805-0.289,1.496-0.867,2.074
		c-0.571,0.571-1.269,0.857-2.093,0.857c-0.831,0-1.532-0.286-2.103-0.857c-0.572-0.572-0.857-1.262-0.857-2.074
		c0-0.805,0.288-1.496,0.866-2.074c0.571-0.571,1.269-0.857,2.093-0.857c0.824,0,1.522,0.286,2.093,0.857
		C138.049,29.543,138.338,30.235,138.338,31.039z"/>
	<path fill-rule="evenodd" clip-rule="evenodd" fill="#0067B4" d="M144.92,34.36l-1.247-1.909c-0.09-0.136-0.181-0.272-0.272-0.409
		c-0.091-0.137-0.189-0.276-0.292-0.419c-0.201-0.273-0.389-0.464-0.565-0.574c0.325-0.105,0.617-0.293,0.877-0.565
		c0.253-0.26,0.379-0.604,0.379-1.032c0-0.558-0.195-0.99-0.585-1.295c-0.389-0.292-0.938-0.438-1.645-0.438h-1.675v6.64h0.516
		v-3.184h1.012c0.455,0,0.798,0.133,1.033,0.399c0.116,0.13,0.231,0.276,0.345,0.438c0.114,0.163,0.229,0.338,0.345,0.526
		l1.169,1.821H144.92z M143.245,29.443c0,0.422-0.152,0.747-0.457,0.973c-0.299,0.221-0.724,0.331-1.276,0.331h-1.1v-2.599h1.148
		c0.52,0,0.931,0.113,1.237,0.341C143.096,28.709,143.245,29.027,143.245,29.443z"/>
</g>
</svg>
